<mxfile host="app.diagrams.net" agent="Mozilla/5.0 (Windows NT 10.0; Win64; x64) AppleWebKit/537.36 (KHTML, like Gecko) Chrome/135.0.0.0 Safari/537.36" version="26.2.12">
  <diagram name="Page-1" id="7e0a89b8-554c-2b80-1dc8-d5c74ca68de4">
    <mxGraphModel dx="2088" dy="2094" grid="1" gridSize="10" guides="1" tooltips="1" connect="1" arrows="1" fold="1" page="1" pageScale="1" pageWidth="1100" pageHeight="850" background="none" math="0" shadow="0">
      <root>
        <mxCell id="0" />
        <mxCell id="1" parent="0" />
        <mxCell id="vGL_J0Q6EiAsAP9_54zJ-27" style="edgeStyle=orthogonalEdgeStyle;rounded=0;orthogonalLoop=1;jettySize=auto;html=1;entryX=0;entryY=0.5;entryDx=0;entryDy=0;strokeWidth=2;" edge="1" parent="1" source="vGL_J0Q6EiAsAP9_54zJ-1" target="vGL_J0Q6EiAsAP9_54zJ-2">
          <mxGeometry relative="1" as="geometry" />
        </mxCell>
        <mxCell id="vGL_J0Q6EiAsAP9_54zJ-1" value="System Specification" style="rounded=1;whiteSpace=wrap;html=1;fontSize=30;strokeWidth=2;" vertex="1" parent="1">
          <mxGeometry x="210" y="40" width="320" height="60" as="geometry" />
        </mxCell>
        <mxCell id="vGL_J0Q6EiAsAP9_54zJ-24" value="" style="edgeStyle=orthogonalEdgeStyle;rounded=0;orthogonalLoop=1;jettySize=auto;html=1;strokeWidth=2;" edge="1" parent="1" source="vGL_J0Q6EiAsAP9_54zJ-2" target="vGL_J0Q6EiAsAP9_54zJ-12">
          <mxGeometry relative="1" as="geometry" />
        </mxCell>
        <mxCell id="vGL_J0Q6EiAsAP9_54zJ-2" value="Architectural Design" style="rounded=1;whiteSpace=wrap;html=1;fontSize=30;strokeWidth=2;" vertex="1" parent="1">
          <mxGeometry x="730" y="40" width="320" height="60" as="geometry" />
        </mxCell>
        <mxCell id="vGL_J0Q6EiAsAP9_54zJ-4" value="" style="rounded=0;whiteSpace=wrap;html=1;strokeWidth=2;" vertex="1" parent="1">
          <mxGeometry x="300" y="120" width="160" height="100" as="geometry" />
        </mxCell>
        <mxCell id="vGL_J0Q6EiAsAP9_54zJ-5" value="" style="rounded=0;whiteSpace=wrap;html=1;strokeWidth=2;" vertex="1" parent="1">
          <mxGeometry x="350" y="140" width="60" height="60" as="geometry" />
        </mxCell>
        <mxCell id="vGL_J0Q6EiAsAP9_54zJ-6" value="" style="endArrow=classic;html=1;rounded=0;strokeWidth=2;" edge="1" parent="1">
          <mxGeometry width="50" height="50" relative="1" as="geometry">
            <mxPoint x="310" y="150" as="sourcePoint" />
            <mxPoint x="350" y="150" as="targetPoint" />
          </mxGeometry>
        </mxCell>
        <mxCell id="vGL_J0Q6EiAsAP9_54zJ-7" value="" style="endArrow=classic;html=1;rounded=0;strokeWidth=2;" edge="1" parent="1">
          <mxGeometry width="50" height="50" relative="1" as="geometry">
            <mxPoint x="310" y="169.94" as="sourcePoint" />
            <mxPoint x="350" y="169.94" as="targetPoint" />
          </mxGeometry>
        </mxCell>
        <mxCell id="vGL_J0Q6EiAsAP9_54zJ-8" value="" style="endArrow=classic;html=1;rounded=0;strokeWidth=2;" edge="1" parent="1">
          <mxGeometry width="50" height="50" relative="1" as="geometry">
            <mxPoint x="310" y="190" as="sourcePoint" />
            <mxPoint x="350" y="190" as="targetPoint" />
          </mxGeometry>
        </mxCell>
        <mxCell id="vGL_J0Q6EiAsAP9_54zJ-9" value="" style="endArrow=classic;html=1;rounded=0;strokeWidth=2;" edge="1" parent="1">
          <mxGeometry width="50" height="50" relative="1" as="geometry">
            <mxPoint x="410" y="169.86" as="sourcePoint" />
            <mxPoint x="450" y="169.86" as="targetPoint" />
          </mxGeometry>
        </mxCell>
        <mxCell id="vGL_J0Q6EiAsAP9_54zJ-25" value="" style="edgeStyle=orthogonalEdgeStyle;rounded=0;orthogonalLoop=1;jettySize=auto;html=1;strokeWidth=2;" edge="1" parent="1" source="vGL_J0Q6EiAsAP9_54zJ-12" target="vGL_J0Q6EiAsAP9_54zJ-13">
          <mxGeometry relative="1" as="geometry" />
        </mxCell>
        <mxCell id="vGL_J0Q6EiAsAP9_54zJ-12" value="Functional Design and Logic Design" style="rounded=1;whiteSpace=wrap;html=1;fontSize=30;strokeWidth=2;" vertex="1" parent="1">
          <mxGeometry x="630" y="160" width="520" height="60" as="geometry" />
        </mxCell>
        <mxCell id="vGL_J0Q6EiAsAP9_54zJ-26" value="" style="edgeStyle=orthogonalEdgeStyle;rounded=0;orthogonalLoop=1;jettySize=auto;html=1;strokeWidth=2;" edge="1" parent="1" source="vGL_J0Q6EiAsAP9_54zJ-13" target="vGL_J0Q6EiAsAP9_54zJ-19">
          <mxGeometry relative="1" as="geometry" />
        </mxCell>
        <mxCell id="vGL_J0Q6EiAsAP9_54zJ-13" value="Circuit Design [Gate Level Netlist]" style="rounded=1;whiteSpace=wrap;html=1;fontSize=30;strokeWidth=2;" vertex="1" parent="1">
          <mxGeometry x="630" y="280" width="520" height="60" as="geometry" />
        </mxCell>
        <mxCell id="vGL_J0Q6EiAsAP9_54zJ-51" value="" style="edgeStyle=orthogonalEdgeStyle;rounded=0;orthogonalLoop=1;jettySize=auto;html=1;strokeWidth=2;" edge="1" parent="1" source="vGL_J0Q6EiAsAP9_54zJ-15" target="vGL_J0Q6EiAsAP9_54zJ-20">
          <mxGeometry relative="1" as="geometry" />
        </mxCell>
        <mxCell id="vGL_J0Q6EiAsAP9_54zJ-15" value="" style="shape=image;verticalLabelPosition=bottom;labelBackgroundColor=default;verticalAlign=top;aspect=fixed;imageAspect=0;image=data:image/png,iVBORw0KGgoAAAANSUhEUgAAAJkAAABYCAYAAADm6FWrAAAAAXNSR0IArs4c6QAAAARnQU1BAACxjwv8YQUAAAAJcEhZcwAADsMAAA7DAcdvqGQAAB6ESURBVHhe7Z15eBXV+cc/M3dPAgkiq7IUUFASwWABgYIKVizFwoM+CELYAhiLooBFShF46IMVopQ+1oVFQR7cSq2kIggFI6uQsgnKlgSUfRXIdtc5vz86Z35zJzfJTSAKeD/Pc57kzp3lzJnvec973jPnXEXTNKEoCjFiVBdqTGAxqhvVuiFGjKtNTGQxqp2YyGJUOzGRxah2YiKLUe3ERBaj2omJLEa1ExNZjGpHBRBCWLfHiHHViFmyGNWOYcmkNVMUBbvdjt1ux2azGUlV1Rs2KYpiJJvNhtvtZvbs2dayilFFVIBgMGhscDqdRuFLgSmKUurB3EjJ4XAAYLPZ0DSNYDDI7t278fv9/19SMaqMInQTFgwGsdvtBINBVDW8Ff25DKJfuHCBnJwcHn74YXr37k1WVpZ1lytGCPGzKU+JoSYpLLvdHtZ8yAKxfpZY971eE0Dt2rWNewK4dOlSmJWPUTVKiaw8vF4vgUCAYDBIKBQK8+VuFMz3Ex8fj81mMz5rmlZqn7IIBoNG+WiaFlZWN2K5lUcpZUlzLmuzGbfbzZIlS8IKL9J+1zuR7kkIYVi1SN9bkS2CWVg/V8JEVlZNC4VCRs186qmnSE1NZdGiRQSDQaN2X+/I+y3rfhRFweFw0Lp1a1wuF0lJSbRo0YKUlBQeeughBg8ezKxZs1i0aBE7duwgEAigaRqqqhIKhQiFQmGVNxqh3jAIHU3TykxmAGGz2QQgUlJSxOLFi8O+v14JhUJCCCE+/fRToaqq6N27twgEAmH3f/r0aZGYmChUVRWKogjASIqiGAkQHo9HPP744yIzM1McPnxYBAIB09V+XuD3+4UoR2Tm74QuMqfTKVq0aCEURREOh0MkJyeLd999N+zE1xvRiMzr9Ypjx46J22+/XQDigQceEG+//bZ47rnnxB//+EcxcOBA0b59e1G7dm3hcrkEIBwOh4iLixOtWrUSc+fOFZcuXSpVcW90FL/fLxwOR5k+g9mvMJv7VatWsX79epYvX87+/fvRNI327dvz9NNP069fP9xut+VM1zayaVuxYgWPPPIIvXr14uOPPzbihAB+vx+/38+ePXvo06cPP/zwA/369WP06NEEg0Hi4uLw+Xx4vV6KiorIycnhwIEDrF27lsLCQtD92sGDB/PCCy/QrFkzSy5uTKossuzsbOLj47lw4QLZ2dmsXLmSXbt2kZCQQJMmTRg/fjxDhgwJO+ZapiKRyfihqqoIIZgxYwbTpk1DVVXmzZtHo0aNjJ6o2e+S/2/YsIGVK1eyZcsWhBAkJSXxpz/9ifHjx4fl40akVO8yGlRVZfv27RQXF+N0OunRowezZs1i4sSJNGjQgLy8PDIyMujQoQOLFy+2Hn5doqqq0SlQFIVx48YxbNgwNE1jyZIlhEIhY+TAbrcbIyeyl9m5c2dmzJjBggUL6NWrF8FgkAkTJtCpUyd27txpudqNRZUsmaqqzJ49m3vuuce6OwCfffYZWVlZHDx4EICWLVsyYcIEBg0ahMPhMEYXDh8+zB/+8Ae++OIL4uLiaN++PbNnz6ZRo0bY7XYwhVQkTqcTTdOMhxoIBCLG+BRFoX79+tSvX5+OHTvSqlUrevToQatWrQAIBAKGKLxeL263GyEEa9as4ZFHHjF6hxXhdDoJBoO89tpr3HXXXUZMzFpu5nMVFxezdetWli5dSn5+PnfccQcffPABrVu3vi6sfmWpFpHJkEd2djZZWVl88803CCFo06YNY8aMIT09ndzcXNq1a4fX6yUYDOJ2u/H5fLhcLnbt2sVtt92G3+9H07Qw/05e32634/f7wyyMGXO+0S2RzWbjmWee4Y9//CPx8fE4nc6whxoMBjl58iQ9evQgNzcXUU7Q1OPxUFJSwoQJE8jMzKRv376MGTPGELw8r/wb6Vxer5dp06axdetW6tSpw5YtW2jevHnYPjcCit/vF9bAYdgOVRAZptorhGD16tV88skn7Nu3D7fbTXJyMoFAgG+//Zb69evz4osvAvDnP/+Zo0eP0q9fP5YuXYoUvzkPHo8HVVX55JNPcLlchEKhUpbMZrMRCoU4ffo0586dY+/evRw+fJh169Zht9upVasWkyZNYsyYMcYxVqujqip+vx+n02k68/8j9zl48CAtW7akZs2afPjhh9SpU4fi4uKIojJ/luUYCASYMmUKmzdvZtiwYbz11luGhb1RMCwZlkIwdqiiyILBIPHx8YZV0zSNzz//nBUrVrBnzx7DEixcuJCmTZuiqip5eXmkp6cDkJCQYDRZgUDAenq++OILFEUxmiss+Zf/S6GHQiHy8vJ488032bdvH6qq8tZbb5GWlmYIBlMzat4WCSl+gG7durF+/XoyMzNp166dcXwkoUlCoRBxcXF4vV6OHj1Keno6gUCAf/zjH/Tr18+6+3WNiinKrSgKbrc77H0yKSpVVXE6nWFjeeXhcDgoKSlBURRjoNnctJWUlIDJMnk8nrAHUlhYiM/nCxOYw+EwHuzu3btBF4X1YZr/V/Vm0ul0cscddzB37lxGjx6N1+tl2LBhbNmyxbAo6NeQAitLIFJg8rotWrTAZrNx9uxZ4/Uga57MCCGw2Wz4fD5UVaVp06bce++9CCGq/OZHWde6FihVVc3NgxSYtGDoNbAiZJOjKAp+v5/NmzeTkZHBzJkz+eabb2jVqhV33303NpuNZ599lkOHDrFjxw6mTp2Kqqo8+uijBAIBsrOzEUKwdu1aQqEQly9fxuVyhV2nKjz++OP89re/RdM0MjIy8Pv9YU2U2YJJsZiT3C5p3LgxoVCIU6dOGda7PMwCFUIY9+x0OlmyZIlR3tEml8vF008/bb3MNYMqMyo5f/48Pp8vLPn9fkKhEH6/P6ogq6Zp+Hw+1q5dy8iRI5k1axa5ubl06NCBN954g2+//ZasrCwSEhI4c+YMTz/9NE899RQnT57E5XLx6quvIoSgW7duADzwwAOourPv9XqN61jzHi1+v5/nnnuOjh07snv37ipbD8nRo0fxeDxcuHAhTEDlIfMu9BcNmjRpgt/vr/C4SPj9fpYtW2a0EtcaES2ZbB5lkh0D9ObJTKRCWbNmDePHj+fll1/m0KFDpKSksHDhQtauXcuTTz5JMBjk1ltvZceOHfTr14/atWtTq1Yt+vTpQ05ODo0aNYooHhnWuBp4PB66dOkCwLx584xmTr4IEOm+yqJJkyYA1KpVC5/PZ/06IlJgij7wfu7cOdxuN23btg2zctEkl8tluB+VyfePhRIIBIT14UXKqHzo8hXljRs3GgXqcrnw+Xz85z//YenSpZw8eRJN02jVqhVPPvkk6enphgU0x6cAfD5fqVACFsfavM1ut6NpGn/9619JTU01tlv3Kw957hMnTjBw4ECjNyqti/W6VmQ+hBBGpXO5XIwcOZJHH33UunspNE3D5XLh9XqNDsJLL73EF198QXp6OvPmzbMeEhFFUSgoKCApKYmaNWsalvRaQzX7HxJzYUcqdFV/fcVutxMKhfjkk08YPXo0mZmZfP/99zRv3py33nqL7du3k56ejsvlIhgMEgwGUUyhDfSHYz0/ll6tWTSR9q0KgUCAOnXqgMnPlIFes5WIlBTd1wwGg9hsNqPSNG3aNMxnjISiT1ZBF5vD4eDMmTNs3rwZt9tNz549rYeUQubjeqG0wqJA3mRWVhZPPvkkmZmZ5OXlceedd/Luu++ye/duRowYgcvlMgpU9lYjnac8IgntamC32zl//jzojntJSQler5eCggICgUCFSdM0SkpK2LBhA4FAgLi4OFJTU/F6vUZFKC/PgUCAUChEbm4uCxYsIBAIMGDAAB555BHrruVS3jWuFaossoyMDF555RWOHj1Kamoq8+fPJycnhyeeeMIIogq9WZEo+nQ72WP9KfF4POzfvx+A5s2bGxYoPj6+lE9qTZgs0saNG3G5XHTp0gWv14vQwxNlVSChO/oARUVFvPfee3z55ZfcdNNNTJky5YYLxAKokZoHSaTtMjSxb98+UlNTWbhwIVu2bGHYsGGGpbIeE0lQka6jaVpYU2ptshXdSa4s8vwOfazT7XZTUFDAZ599hs1mo1+/fkbzLAO75eH3+wkEAhw7doyZM2fi8/no0qWLMf7pcDjCysLv9xsilr7Yhg0beP7551m3bh3Jycl8+umn/OIXv4Ay7jtSkvte60S0ZPKhyJuRTrGmadhsNpKTk3n33XfZvn07AwYMMKxTpBRtIQSDQQYOHBgWCI6UZC+wMjgcDlwulzFM5PV6ee2119i2bRstW7bkiSeeCNu3ImTAdtq0aRQUFNC9e3fuuusuVD3wW1RUZHQIbPpkYTnUdOjQIebMmcOMGTPIz8+nc+fOfPrpp3To0AGuk+avskQUmRXZ5KmqyoIFC/j6668ZNGgQwtIcVhUZDP3www8NMZeXKovP56OwsBBVH3H46KOPWL58OQDz588nKSkJKvGAVVVl5syZLF68GE3TSEtLIz4+HvTOg8vlMkZO5LDapk2beOGFF0hLSyM7OxtFUcjMzGTDhg00btzYOHe0lfJ6QgkEAsLqkEusNyybErs+CVg+FJu+jEG0mB+m+RqK7ueYA67SokrLKB9cZUMYPp+P3Nxcli5dyubNm0GPj40YMSIs7wFLiCUSe/bs4f777+fixYuMGDGCPn36GGOtbrcbp9PJiRMn2LRpE3l5eWRnZ/PDDz+gaRpOp5OhQ4fy/PPP06RJk1LXkvdbHvL+lOskhFGuyIggtEhoFQwmR4sUmWxqJD6fD7fbTSAQwOl04na7WbZsGTVq1MDn8xn+j0RarFOnTnH27FkOHTrEkSNHWLFiBQ6Hg8TERKZPn056errR1EsiPWTztiNHjvDggw9y+PBhunbtytChQ9mzZw9Op5Pvv/+evLw88vPzOX36NDa9A6BpGh06dGDQoEEMGTLE8NlkK2C9XkVcbyJDTpaIlKJFTsK4UtBnQlnzIfPi9/sF+uwgj8cj0GcJqaoqbDabkYCwGUXyr81mE5MnTxZnzpwRJSUlQghhzCKK5p4PHToknE6nkYeykqqqombNmqJv375izpw5Ii8v76qVkbDk9fLly0JVVZGUlFRh/n8qyrVk0daK6rZk8jv0iRhBfQa7UsY7cE6nE7/fT926dWnUqBG/+tWvuP322+nWrRu33Xab4bhjGgw3W4dIHDx4kMGDB7Nt2zZq1aqFqqokJCSQkJBAvXr1qFWrFm3btqVZs2a0b9+eRo0a4XK5jHhYNGO+0XK9WTIlFAoJxRLVj9RklEdl9y+LSCKznlf2EM3XtHYGQqGQ0YRKMdpMr9aY3zSJBvO1gvqr4+Vh3r8i8VaF601kKhEKwPr5p0RYYnXSUTbnUXYKZHI4HGH/2/UBfumUVxbztSoSGKb9pdiupfL8KYj9tlI1Eivb/3HljlSsMGNUwFURWYwY5RFrLmNUOzFLFqPa+dmJTPZSY/x4/CxFFuPHxVj9+lpAiRCMjUQ0fuQ777zD0KFDjc+hUAhN04yYGVGe51qkomCspmk0atSIkydPkpSUREJCAomJicTHx9OqVSuaNm1Ky5Yt6dChgzGxGj3QbDMtlXW1RnKwjjP9lFDO2KV1HLM8vF6vcDqdonXr1mLBggVh31kXtrseqWjs8vTp0+Lmm282xnFlkmO75nFdp9Mp+vTpI+bMmSP27dsn5KKI5mtdKTekJZNvotr0Fx1btmzJpEmTGDBgQFTDQleLyhStdZSgPKyWLDExkcTERMOSeb1eTpw4wYMPPkh+fj6//vWv6du3LwcOHMDpdHL8+HGOHTvG/v37OXfunDGRRlEUWrZsyciRI0lLS+Pmm2+OKj8Vcc2KTDHNS7RmsaKbFkIYyx/UrVuXU6dOAdC6dWueeuopRowYYT2kWrDmuzyupsgkX331FY8++ijnzp0jLS2NAQMGGBXPr0/YLiwsJCcnh+3bt7Nr1y4uXLiAqqr4fD7S09OZNGnSFa8Iec2ITNM0PB4Pfr+f4uJi3G53lQQmkfutWbOGjRs38v777xvLQbVq1Yrx48cbYquK7yEtonyr15wva56jQR4fTV6sIqtZsyYJCQkUFBSE7RcIBHjjjTcYO3YsAEuXLqVFixYUFxej6L6bfNEyGAzicDjYsWMHixcvNhbmq127NpMnT+bZZ59F0VectOtzTqN+FteCyGTBmmtzWdmK+sZMIouPj6egoMBYwio/Px8hBG3btuWZZ55h2LBhxnFlFZ7MY6TvzQ9dfi4r/2UhhVVVkdWqVYsLFy6A5RzBYJDhw4fz0Ucfcd999zF58mRjH0xvtXi9XqOyuFwuDhw4wKJFi1i/fj0AXbt2ZdGiRcZkF8opKys/uciEvqyTEAK3242mz2eU719FeyNWzCKz2+04HA58Ph+avoSVXAnS6XTSvHlzw2fzer0kJCSEnUvmwSoATZ9zUNmaHQmzcKS7UJbvWJHIJDK/586do3nz5hQWFvLSSy/RtWtXY+5BIBDAZrMZ775JPB4PxcXFbNy4kb///e+cOnWKO+64gyVLlpCSkmIIMpr7Lr/K/AgoisKLL75Iu3btjMxOnz6dixcvGt9fDeSLg3a7nYceeoh58+Yxbtw4GjRowMGDBxkyZAipqal8+OGH1kP57rvveOyxx6hfvz633HIL/fv3Jz8/H1V/zdtc0FIAshlSIkxlsyZVVbnpppu4//77SUtL4/333+frr782rI0VeZyZ4uJiYza+oijUqFEDh8OB0+mkcePGFBUVYbPZWL9+PZcvXw47PhAIUFBQgGJyT+Tsqi5duvD222+TmprK/v37+c1vfsPly5cNQVrzEQnDklkVWZaBi+akFRHQJ2ucOXOGhx9+mF27dhkOaUCfnd22bVtWrlxJvXr1rIdXiKZP3QNYu3ZtxIdiZtWqVSxbtowjR44AkJyczLPPPsvQoUM5fPgwd999N5cuXcKpL7inaRpJSUls27YtbPlN63XKal4lkbYL03TEcePGMWnSJOOHxaz7KfpyCb1792b16tXWXcJw6HNOk5KS+Oc//0lcXBwlJSWolumLMp6ISQMufa2TyZMns2XLFgYPHszChQuNCUVlWVyJoocy/vdBN9UVHhShcCqL3+8nLS2Nf/3rXyQmJvLyyy8zcOBA3nvvPSZOnMjZs2fp06cPH3/8caWvV1JSQlxcHOgrMlJBnp1OJ5cvX2bNmjVkZWVx6NAhnPqieegL7tWtW5fp06cjhGDq1KmcPXuWvn378sEHH4Q1HQF9sovQX7AMhULMnTvXeslS3HLLLeTm5nLp0iW+/vprVqxYYWx/4YUXjKVHraLVNI3Lly+TkJDAxo0bjXzIfdGteJcuXYyVtufPn0+TJk2MlzhD+s/ySIFbkdvPnj3LkCFDAFi2bBm9evUq5UJEopTIZE+jPCJlpDJYm4HVq1fz4IMPGp/Xr19vrE3m8XjCpshFg8PhMCYBZ2dnW78uhU9fEFne1+eff86SJUs4fvy4YZ0WLlxIs2bNEEKwb98+MjIyqFevnhEeMRd2UVGRsdyBEKLcPMgHKEUZ1BelOXjwIO+88w5fffUVNWrU4PXXX2fQoEHWww3RaZqGv4z14+T5x4wZwxtvvMGECRPo3LkziYmJhmDLq4SqqhoWa+bMmaxatYqRI0fy5ptvGuVTHqUk6PP5wm7cnKSja/6/KgnTK9Mej4cGDRoY1/b5fGEil+tuRYPMZ2VmmQt9gnIoFMKpr+qjqiput9sQCfoaGXKJgbi4OCPc4vf7mTp1Kq1bt+aXv/wl/fv3Z9q0acydO9c4tiIUPT4o9HU0FEWhWbNmvPrqq2RkZFBUVER6ejobNmywHmo8YJlnM7I80CvBrbfeiqIonDlzxnjO0aLorVzv3r1RVZWcnBy0KH8lUMXiS2j6zyNHStKsynZbJvP2aJLQe5TDhw8HoEePHixduhRN0/j3v/9tLMzbv39/Y99okjk/5SEFLnQrYNeXRli+fDlpaWm8/PLLxipFbdq0QdM0xo8fz549ezh+/Dhjx46lpKSErl27YrfbmTx5MtnZ2fztb39j6NChNGzYkO+//9562YiUZQmkNe7fvz+/+93vjOCoudKZDYA5RcJut3PixAkAfvjhB3z62nJlXd+MPKfNZqNJkyYIIdi1a1fYXAqzX2f+PxgMXp0QRlVOoSgKFy9epGfPnuTk5BhOv3RQ77zzTjZt2mQsIVAZND2sgMknM2POr9/vZ/Xq1Sxfvpzc3FwA2rZty+9//3tGjBhBfn4+d911Fz6fL0y8N998M19++SV33nmnYZ3lw1JMoQVVVVm3bp1xXEUoEQLQmqYxduxY9uzZw+uvv05GRgaUU+5W0cjKNHv2bCZOnMgTTzzBww8/zK233mp8Xx4yT06nk7179zJq1ChUfd2PSARNqwsUFhaWbi5/DGQhxMXF8eWXXzJu3DhatGiBw+GgadOmTJkyhR07dlRJYJTxoMwouulft24dGRkZzJkzh9zcXJKTk5k3bx47d+4kPT0dRVFo3rw5u3fvpk+fPtSvX5+aNWvSt29f1q9fb3QMzCKT9ybXxpDfXQkul4vu3btjs9mM9W3Luz+J1bIdPXoUgHr16tGwYcMye4byHuSx8r5KSkpYtmwZACNGjDDcBWuSrZXP5yM+Pv7qWLKrhaYPczj15T1lDawsQl9RWlEUYwVtM+vWreOjjz4y1ie75557GDlypLGWvry+GWllK0I+WFVVcekrTF6pJQuFQpw8eZIhQ4bQsGFDvvvuu7DvrVjzLl2gjh07smvXLqZPn87dd99NYmJi2LXMojJvd+qTpc+fP8/QoUMpKCjgvffeo1+/fuVOMZQi/kksWVnIB3OlmGui0H06VVVZtWoVI0aMYMaMGRw4cIA2bdqwcOFCNm3aZDQBZmtkJlqBKbpPgqXZuBLsdjuNGzfG4XBw/PhxI6ZYVpL3IJPD4aBWrVrs3LmTpKQk2rdvz0033WTkTZaTRIpM0zt5AX0WfGZmJgUFBYwaNYp27dpFtIJmZDlcUyK72sjCWrlyJRkZGfzlL38hLy+PFi1asGDBAnbu3Mnw4cPDamN5NbMiIonzamCz2bhw4YIRyrE622UlKTJN0yguLgbgvvvuo0aNGpYrhKPqIQspvIKCAiZNmsTevXupW7cuEydOpGHDhkZHqyxkedzQIgMYN24cmZmZfPPNN7Ru3Zp58+axd+9ehg8fXm2iuNoUFhaydetWFEXhvvvuw+v1RpVkSOjw4cMkJibidrvp1q2bES2wWjB0YQT1NzJUVWXr1q2MHj2anJwcmjVrRnZ2Ns2aNSMhIeF/TWEFgVhuVJGZo+579+6lbdu2zJs3z1i8T9XHHIP6ALE5rlaZGFt1Yq4ALpeLzZs3I4TgscceK9U8VpRefPFFiouL6dSpEykpKUYzGAnpXpw5c4bp06czadIkTpw4Qfv27fn888+Nzk6wgoA9pnsIc/xt+hr9Ma4c2VwJIcp1/K2+kBmXy0VxcTGvvfYaWVlZpKSkRPUDrEVFRcTFxaHoLx/MmjWLYDDIokWLaNSoEZq+GJ/f7zdihF591e6vvvqKZcuWsX37dmw2G0lJSUyZMoXRo0cb+1aWsAFyh2lJpWgpq0b8nJHOtrSK5Q0rWZHlKf2prKwsXnnlFVwuF+vXr6dNmzZRdY6EEGzdupXevXtz7tw5Ro0aRVpaGsFgEI/HQ1FREaFQiKKiIjZv3sy3337L1q1bOX/+vDHyMXz4cCZMmGC8BCCbV5m3aAmzZGXFTWJUHk3TjB++j1Zk0mEvLCzku+++Y/78+fz3v//F5XLx+uuvGyMkFeHz+Thz5gydOnXi2LFj9OzZk169enHkyBGcTidHjx7l+PHj5Ofnc+zYMdDDJC6Xi8aNGzNy5EhGjRpFYmJiWOjmikQWtEyFinF1UKMYIEf3Ay9dusThw4e5ePEie/fuZcWKFQghqFu3LlOnTmX06NFRP5+LFy/SoEEDI/SA3msWevzOpy+BGtLHa/v06cO9995Lz549jZ/PNiN0P82u/+RQNM6+mZjIqgnZ+ZA/nFoW0jqYURQFj8fD2LFjmTx5Mk6nE7tpvmhZeL1eiouL6d69O7t27SIuLo4aNWqgKAq1a9cmKSmJunXrkpqaSkpKCs2bNyc5ObnU9ctCifB2cDTERFYNyAfh1hdTjsbPrVOnDikpKdStW5fu3bvTqVMnoycX7XORoYl9+/Zx6dIlbDYbnTt3Ztu2bXTs2BGAvXv3kpycbOxfWfdINpeVISayakDo43by1ZuKRGb+XloJRZ8/6fF4THtWjqqIqDpQxP9mCVfamYtRNtZxzoqaI+krmfHrs4iulJKSEjweT1gzJ8X3Y4lQ0TRNUAmTHKPqWMUmy7wqTdD1hKJpmriRbzDGT0/lugkxYlSBmMhiVDsxkcWodmIii1HtxEQWo9qJiSxGtfN/uAazw66G7jgAAAAASUVORK5CYII=;strokeWidth=2;" vertex="1" parent="1">
          <mxGeometry x="1217.5" y="280" width="104.32" height="60" as="geometry" />
        </mxCell>
        <mxCell id="vGL_J0Q6EiAsAP9_54zJ-50" value="" style="edgeStyle=orthogonalEdgeStyle;rounded=0;orthogonalLoop=1;jettySize=auto;html=1;strokeWidth=2;" edge="1" parent="1" source="vGL_J0Q6EiAsAP9_54zJ-18" target="vGL_J0Q6EiAsAP9_54zJ-15">
          <mxGeometry relative="1" as="geometry" />
        </mxCell>
        <mxCell id="vGL_J0Q6EiAsAP9_54zJ-18" value="&lt;span style=&quot;text-wrap-mode: nowrap;&quot;&gt;ENTITY test is&amp;nbsp;&lt;/span&gt;&lt;div style=&quot;text-wrap-mode: nowrap;&quot;&gt;port a: in bit;&amp;nbsp;&lt;/div&gt;&lt;div style=&quot;text-wrap-mode: nowrap;&quot;&gt;end ENTITY test;&lt;/div&gt;" style="rounded=0;whiteSpace=wrap;html=1;strokeWidth=2;fontSize=14;" vertex="1" parent="1">
          <mxGeometry x="1189.6599999999999" y="160" width="160" height="60" as="geometry" />
        </mxCell>
        <mxCell id="vGL_J0Q6EiAsAP9_54zJ-31" value="" style="edgeStyle=orthogonalEdgeStyle;rounded=0;orthogonalLoop=1;jettySize=auto;html=1;strokeWidth=2;" edge="1" parent="1" source="vGL_J0Q6EiAsAP9_54zJ-19" target="vGL_J0Q6EiAsAP9_54zJ-30">
          <mxGeometry relative="1" as="geometry" />
        </mxCell>
        <mxCell id="vGL_J0Q6EiAsAP9_54zJ-19" value="Physical Design" style="rounded=1;whiteSpace=wrap;html=1;fontSize=30;strokeWidth=2;" vertex="1" parent="1">
          <mxGeometry x="730" y="400" width="320" height="60" as="geometry" />
        </mxCell>
        <mxCell id="vGL_J0Q6EiAsAP9_54zJ-52" value="" style="edgeStyle=orthogonalEdgeStyle;rounded=0;orthogonalLoop=1;jettySize=auto;html=1;strokeWidth=2;" edge="1" parent="1" source="vGL_J0Q6EiAsAP9_54zJ-20" target="vGL_J0Q6EiAsAP9_54zJ-32">
          <mxGeometry relative="1" as="geometry" />
        </mxCell>
        <mxCell id="vGL_J0Q6EiAsAP9_54zJ-20" value="" style="shape=image;verticalLabelPosition=bottom;labelBackgroundColor=default;verticalAlign=top;aspect=fixed;imageAspect=0;image=data:image/png,iVBORw0KGgoAAAANSUhEUgAAAJcAAABZCAYAAAAzfba9AAAAAXNSR0IArs4c6QAAAARnQU1BAACxjwv8YQUAAAAJcEhZcwAADsMAAA7DAcdvqGQAABlrSURBVHhe7Z15kBzXfd8/r6+5F8fi4m5C2RQvyRIRKqZIEIZIVVguqbSgUqBhla0/JMtMqkwlNulQskjIFg+LUhxDgFJKKMcSy2U6CQ2TLFEEJJryQUsCaZE6ylxHkk2TdhBYRVDEnrMz09P9+uWP6dfb0ztH9+zsAWA/qF9hp693fd/9+rXw3IbiAkaFdr6iVJA8tGoIz62fz3Hbl/NfXGsXOiN5ICtKqY4B6HZ8g86cj3G1bHFtcG4jhOhow0A0G7VMWUbKAEMIhCFQgUIYLY9I2V63m+ZS3Q7i6UAGGLFnJXP4IM+Mk6wWPd/DMq3F811KlLi7y/GDMARBGHdCiK7uaQZxK/5MpRSGsTRteqGUQghBEASZ3M8srqxk8UwndMA08b+TCZG8Ng1JcSWfmfV5WZFSYpomSimCIIgSPulu3F/Jc/1Yzr2O4+C6bvJwKta9uJLogCYFJ4QRlahZ3EyKi2UmxqBoN5P/a7Q/WmHN5qflhKfpNcnn80hfJk/1ZVniGhsb5/Wp6eThNjy3kTw0MONjY0zPzLQdSyZCrbaAEOmL/c7ialVTF42NMT3V7l4S160D2RIsjgirwpMnv8ktP/dzzEz3dq9er2UKH7HwAG33jo+PcfbsVPS7E5ZlMjU1TblcylyCGa2ISW9CmAhhAoLZ2TlMIdrMCHsJ2lTYa9SWfF4/i9/7+tkppAzaLAhUmyXvH8SUAqXom9Atlt6f1ZRS+H4QCnnp+WGZTjchDJRSTE3NRGHtZiCwbRvPk0ue18+MVs4VqU0T/zuOLgkWrfP9aWm/P/nsTpbeDX1PnFa1Ebd+pLmmH1mekeVaTaewJH93I35vMm56WyiuC9fWI/GqPlntD0rWttYwyFZ5JxIlmVBpoiF5fT8bhOQzutl6IymAQRrvSXqJc5BnZ/FTJnEJIXAcBynlkrbUYptquNi2HT07baCWg2UtjnGtBtq9ffv2tcVhp/8dx4ndORiO4wycXobRaqulvS+TuAA8z4sixDTNJWYYRpstF9/3237rnNPNlstS93rbcvF9H6UUzz77LIRxShjOpNCz9tY60Ww22zJqMr2SFicIsk2Cp0597ZkgCKLBPill9LubrQVZcleSQe8bFN/3EUIgpcS2baSU5HI5hBA0m00IBTAsPM+LxBUvwbqZZpB4EY1GXaXpOWhxCSHwfR/DMJidnWVkZKTturgnOpUmyd9p0AGdnZ1l06ZNydNtxJ8/iFvEcujs7Ezo3tKIbT27ZYO4E79HKYXneTQaDUZHR3n99dc5cOAAJ0+e5Ctf+QrXXXcdjuNE8ZnFPZ0eSfcAZmZ0+LpTrVapVCqRGLOQOUvEpyg2bdrUFmAhRFuRqj2U1VOdEEKwefPmJe4lLU4yF6Yx7VbLvS0IYXS0xS73YO4kS3fLsqhUKriuS6VS4corr8S2bV544QVyuRyWZUXxrv2Zxu0k8WNp4rNSqbTdn4XM4spKp0QflGE9pxedEiQ5fhMX1jDQbqqw0e66Lpdddhmu6/Laa6+1XbNWDOL+iovrXGGQyFsJPM9jZGSE3bt3AzA5ORmdWy9+TMs5Ia5hln7rHdu2o5ILiEouEWvznCtxkbpBPyyWGzErkXuT7RPtx6Rf4wkMUCwW284PwjDCo5Ti+uuv56mnnhrKWNiwuODF5XkeuVwO13WjAcZudBLXI4880nZNVl555ZXkodToTKGU4r777qNarSJl9qUxK8UFI66kMDS2bdNsNnFdl4ceeojbbrsteUlE8hnFYpEnnnii7Zpe6LDrXl8QBEtKzbQk4/Hmm29mbm4O27bbjq8l4ZKbCxMFNJouf/L4Y+x7xz4+fuhQeFQRCEVyCDgeU0q11l/4vp/ZPM/D87xoGm0QtCjjI/rrqUpkLRr08aI8afo8YWRZlrXEbNvOZHocScTWgNu2jRCCyb+d5Off/wt88NZfYvLFSWr1OkpKZCDxAomnfGQgUTKIBh9MIRCACqsfu4Mfu1mnKTLRYWwpi61nVl1caXAch2azuSxzXTeai9Oi8jwPgB/96Ed87GMf4+1vv44Tjz9BoFpVST5nYFsGtmliWwaWZWCZJpZlYsQb+UErM6zvpF17RKOxvt64NgyDZrMZTTkslyAImJubi0qOw4cPc/ToUV577TXyI6NUdl7Krou2M/nscQwBf3biBEIZSBGgBAhltVWIhmGyZ88ebNvCchyOP/lkh8mh1cM0TaSU3HzzzTQajYGr2ZVg3YlLN7BLpRJf/vKXk6cz8973vhcpJYZhYJomnuchhGB0dJRtY5dQ3HEFwgr4zp//TwRgSzAVBIKozaXCAl6L3TTMVtUp5Ya4erAuq8VhokWVz+fxw+U0esjBtm0sy8L3fPCI1o2bpoEbQKnU3kDWbUNftpbJWENcrTAouk2pwqkj3/ejOcthrqYYhLV1fRXwPI/5+Xmmp6dpNpscPnyYLVu2cPbsWSa/9x1e+Yf/g4Eb9ZsbjSrzjTr12gz//OoZpmfnmJ2djazZ9JifrzI1PY25ygsL+6HH6vTynbVa8qQ578UVRynFhz/8YZ5//nnuvPNOLEfw+qlJvveXxyEAxxA0Pcn8wgLStFG2g2FZGJaFMM3QDIQZ9vQMY02rRBLjfpVKhXw+T6VSoVQq8fWvf73t2tXmghKXlBLP89ixYwf3338/f/XMX/CeiZ8F5YMBvg8fuvXfs3l0G+VSmXKxTKlcplgsUiqVKJVKGIZBoVCgMjIylJWhw8TzPIIgiNphP/jBD5KXrCoXlLgI103p3H717n/F//rDP+J/H/tj3vrWq5CB4tHHH2/t3eAr8BVKLo6iq3CfBf23vU5Gw/WYlx5+uf3221FKUa/Xk5euKhecuJIYQnDwloM888xfcfjoEbymh14cLzpsphKfu9PjZht0ZmnsXUAY4Wi957fWUEXzikqBIZiammZ+odpmfhBQrdWYq85jrZOSa71yQYsrCKtH6Utc121tnRSOlxqG0RqZN9pNytYLFUIIPH/9lFzDGHAeNhe0uDSGaWCYxroSy/nABS8uFaz1YML5y0DiUqv09vNqECjVU2DCCPf8Cu18YTXSL7O44oN2q+HBlUaHQAUKoWjbSEIIA6FoszaSvwdCLMvi6bHeyCwuLSilFPPz823v3yUtPj60HiOhFZL25EKHMVDYprk0OcN1u9qklAPbYjyxZJ+xdLY4vaMXDfYjng5zc3NL0iiZdoSdGz0vm4VM4op7QgjB2NgY5XK5q5VKpahntV5LuaSw2s518bNgsdRyHGdgs227taGwYWKaVvj30v0aultrL1UGHHO7+OKLo5mHpBWLRYrFItu3b6der5PL5ZK39yWTuAgjXEe6YRhLSquknW/EczPAwsLCMqzGi5OTNBp1Go06L06+yOTkZAZ7Edu2+f73v9/3tfw4eulRM9yUpJfNz8+Ty+WQAyzJTr2eS5dWItw0wzRNRkZGaIabZXQj6xTEsNdzTUxMUKvVsCwL2efNGCEE+Xw+Cmej0ViSQUS4XFopFZXMg9JKq+W9jygE2LaF67qRWO6++26OHDnCAw88wO233952fRBbipMm/QqFAj/+8Y8pFou4rpvJj6nFRSLwSilGRkaWFMdJdY+Pj1Mqldi5cyelUolt27ZRLpfZuXMnxWKR8fFx8vk8W7ZsIZ/Pc/nllyOEYOfOnTz11FPLnhzW4jJNs29EEq4s6CeuZBgHZ2mFXK1WyecL5HI5fN+jUMjhOHlmpmcwrcVqcBHV1rMQQnQVV1zESinK5XKqDNdoNJBStqV/GpFlEhexh/YTl04g/bfOLcnr49fE/5dS8uSTT6YKRC8mJiao1+sY4ZZP/SgWiz3FNVzaxaXDapkWtbCd4zgWuVyez33ucxw4cEtiV6FQWLFubCCDDuLSaaZfVjFQKqBcriBl74b6qohLhGpPKy7Nyy+/zMLCAq+++ioLCwvMzc1RrVY5c+YMCwsLnD59mnq9ztmzZ6nX65w6dQopJdVqlePHjy95flYmJiYwTTOqytKwVuICaDQaFApFZBBw+vRpLr/sjYBi165xTp78JmPj49GdLXTJpTO1ERPXp7jjjjvC6rclLr1V+KK4esdvt3gYqrg0WcUVb3PFxZnEiG255IWbcZw4cSJVadOL/fv3Y1lWtHY+Ld0idbhocS36K1CtoQnLcviV227joS/8HoVSmfpCjQ/deitHjxyBaM/qpXtc247D3Xcf4sjRIzzwyU/x679+Z7iFeuvZhmjFsy99Riojobi6S0DHg0oMJ6WJy8y9RcLut06sZPdYv5unjZjgdInQyVQ4xjJsLMsiCAKKxWIk4E6mSWaOlaMlquRW6rbjYJgWjxw7xkNf+DwYDrvG3wB2gYe+8EX+5LHHKRQLGIaFbTvkcjkK+Tz5XI5isYBSklzeRKEwLAGGQBgmTc9HYSBVKE1hhhLtHd5yuQwxkSXjqxeZxRUEAY1Gg1wux/T0NPPz8z1t9RKrM/E19I1Go6vF33NceeIlVqLsUXB2aopPfOITiPwmtl18GSM738Cun7wCMLn70G9SX6hjIhHSw2+6BIHE9zwa9QaWbTM9M4uSYNkOCsFCrYbt5ACB41jo2a56vU6t7lKvN6jX6x3tzJkzka8LhUKm9MwsLkIVB0FAoVBYUgJkUfZqo4v2XrbaBB3cvf+++/inl18iXxph88VvwivtYtsb3gSbL+LMP5/iNw/9BmbQwFYu+WIe0zBwnBzCtHCbAVKZYNnU6k3cpkexVMIw9Zc6Ft1pNPp/OkcsY3fIzOKKt416eW49ii05/dLJ1pqnn/4av/fggwjD5JKfeAMFx8Zv1nFMxU/8y4sA+OL/eJA/e/qrCAL+8ItfYMvmLeTyBTZt2sqmLdv5/S8+DL7BPfd9mi1bt1Eqlck5BR745KfCMLZKTL3YcXE7zqWFRFJcWdIyc4M+SRZFp/GYCF+7H1aDPj7Opdt0vfzcaygi7v8gCMjn8ywsLETH0tNKXGEYIBbbpUIIrrrqKk7933/C95rh0IFNrlzBd2uYyscSAY5lcOkbf5LnnvtrXF9xzbXX89I//CN+4CHyW1AND0wHs5hH1mZA1rnk0it57rnnyOXyWFZLSKAwBW0dgl5oP6Ylc8m1QYtWFeMvmS/MYrZltz7jJwQLCwt89rOf5eWXXsJr1hEoLENgGx6OXyXw6piBh5ISTwZ8+2//nk/+59/FdvL87n85TBAAosju3dew56b3sOem97D76reDMBGGw0c/+hFKpSJm+MlAIUS0/0VasgiLYZRcml6lgSaN51aj5KKHf9OUXCLcLn3r1q09mwZpsXMlPLdOsTxCvVYHAqpzswS+x+joVppScvbVH1GuVHCKZVy3Sa3eoFKuYAmFUvDz7/tFHn38cbZcdDlX/NTbCITF3/3gRWZPf5+ffddNHDt2DMta3G5JiNZuPcmhjGGy4uJKI6g455K4SqUSX/rSl2J3p0dvN94aDlhs25iWyS0HDjA3MwUoyqUSAnDDecP5hRp2Lo/t2NQXGhQcE9/zeeUfT/FTb30LkOPNP72PAJMffvubYPp87ekT3HjjDQRS4Yfx2Sq1kuNkw2Vo1WKUGxK2Xkn6c1D/Jsf1kuN+3azlHhihCVT0t+81w8HUVoLLIMBtuigB+XwOU4D0PAp5B8uyyJcKjP+LMT70y78MwufUS9/ltVOTWDnFHb/2Yfbt3UvgS3y/iSAIbWWFxTDFtUFWdIK2V0utBO98ZnEkvyVElMSXPl7Tw3Fs7rv3t9i8qUh19jWmf/z/KBdM/t2tv0QgfYLAj4m4VWqtpLDYEFd3ulWbw6WzwOIJrpSKXoGLo4+7rkugAkzLZNOmTXzmM4ej87t3X8Wll15KvVHHDz+p082dlWBDXF0YpIocjE6JHRNX9FdnnHCFqBCt71G///3vp1wuY9s211xzDUoFlEpFgkCGE9fxUmtlGVqDfliIVWrQd0PPpclwG6LkxHyS48ePt/1ebolnmiYTExNUq1UASqUSKhyw7hYGFdvDwrIs3ve+9/Hoo4/y7ne/mz179iQvb0NPeRWLRd72trfxzne+M3nJwGyIK8HmzZujCO90j05IEU6BPfnkk0vOLwchBBMTE+FiwdZGblpcjUaDQqGQvAUVG9x0XZdDhw7x+c9/Hj/8lmM/jHC5OimnhNKyIa4E8WVEuVyuY8mlE1JKOfSSKykuKSUHDx7k4Ycf7lpVx8Wlfx86dAjTNNuOd7rftm2q1SpHjx6NRDwsNsSVQIvLNE3OnDnT9gkWnTi61BofH+fhhx+O3b18cSWrRS0wvUigHyrc2qkZ7midz+eTl7Rhmiau6zI6Okqz2cz8zkMvNhr0CbQApZRUKpW28SuduPqamZmZtntXAtu2yefzkWhVh5UccSNcZiTCl036IcOXbdK8X5CVDXGdQyy3VFxtNsS1wYqxIa6MpGn3rBTnWsm15g36XC4XvcwZxDaL3bx5c9QVXw4jIyOcPn066m5bfbb3rlQqUSei07JnFe73Pj8/z/bt2/vuoSDCl4hFyvcdDcPAcRymp6eX3LNSwlZKRR2XYTbo11xcnudRLpep1+vRZ1n0cU2aROlEshueJnEKhUJfcenGfaPR4Nlnn01e0sb+/fsBOHHiBHv37uUb3/hG8pKIuP/27dtHrVbr2FsdNutWXP0C3E8YOneeOXMG329tCanC7nS/e/sRz/lBbO+KXs+94ooreoqL8Fl6oWCvZxGOfCuloi0FepXEcf96nhftPK2P94vr5aAHZ887cX3gAx/gkUceaRspXit0tUwXcelpIdd1o+UzvdDDAXptWHxIg1j86GNxEcXjLnndoMQFHP+t3+xZ00FU7Rkdqdqj/UTUC735R69nxBN9NdixYwevvPJKx73mkxmgV4InxSUS1bMKx6f0RilGbNuBTs/tdCwL2v0gnFbS7haLRYLwtUGNFrrneR3joR+ZxWWaZtSITebCOJ1yXTfi4hoPX1cnFri49UPfMyh6/u7gwYPcddddlEqltvNaDPG5v17u9ROX7sQYhoEXfgHDcZwo8ZP0cisN8dpBp5+Uss2fmmRcppnIj5NZXNrBIAj41re+1Xdk94YbbkgeWkJ8JLlWq7WdI1ZS6NIymUCkEHAWdKQLIXjmmWfazml3hBC84x3v6OtuN3Fp/+u/p6am+OEPfxhtU3Tttdd27CzceOONyUOZ0Omnp5X0B6j0apCnn3667XohBPv27YNwKqpfbztOZnEZ4dIOgLGxMaanp5OXtNFJLEni4tJi1W7onO37Prt27WJ+fj66thNp3OuGTnA931apVLqKR4Qlreu6kfiTgqeDuIgJSj9bKcULL7zAgQMHOHv2LGa4DUKn9ly/8PdDhd/FrtfrbN26FcISyQ2/eJYsLHK5HLOzsxC2Nzv5qRvpr4xFqGZYc2vxRJXhy6lxd/Q40dzcXOyu1SFe0sQtfo4uy3Pi2OF3tTvdL4SIdvoRYa0QhD3SpC0X7bbujUspaYQbjbiui0rMVeoxyHhG6JbhkqQWl/bUYKgO1sJxnCg3SClxnNbmGma4XES7mzZAq838/Dy1Wg0ZTgDHBROPM51BLiRSi4uBBdYS0+I+Lq03TwIVoMLEsW07Etj8/DzNZrOt+l3PjI6OMjo6SqFQoFwuk8/nyefz5HK5tk1q/XANeyfhnQsMkhapxLW80qN1j37zpPV2S4ASCiUUU1PTGIYFpk2uWObs2Rlq1Rq+1wQl296GWe/EBRMX0P79+6OufPKac4ms/k0lruUQ1tQoJTENsEwT0zIJlA8CbrvtP1Bv+JRHd+BKg4/ceRdbRrZgGQIDiaEURntNuq7QWw01m02q1SpuuBWTtmazyWOPPRZlzHOx1BqUVOIarMRqR6AIfA9f+vjSRyrFZz77X/nq1/4Sp7KNd938ixiFrZz46p/y4H//byjfb4nqHMA0WxvhZrELgVTiWg4CMIRolUBCgJK4TY/vfu9FPv6Ru8Eucc2N72HLrjezZ98Erudy18c/yne//R0Mu4AQJoEIH7RKZEl8LawNlpJaXINEYEsTouWIUqACVACGYXPv/Z8Ge4SLr9rLJW/Zi8sIl7zpX3Pxm69mtlrnnt/+NCgDtUZVSNrxnEHi5UIh0yCq6DP/l0QAge+Tsy2E8loCc4rc+8DvcM9vPQCVcSY++BGc8k7ytk3QnMWWU/zR738GNX2aBz55D7/6a/8Rw2gNpuqhik7TTvHqJosfOyHCsaakG504V3q1a8GKi8tQYJkCTCAI+Nbz3+O6vTeAuZmf+bcfZPzN/wZlj0BQx2vMsnVTjr/7m2f55hN/AO40J08+w9W734JtOxATzqI/kr9XV1xprrlQSVf2LxfTxF+oglLcfvsdgMObrr6GN15yJQQm0gfTsMkXN3FmzmPssqu4ePd1oGz+00fvotn0AEEQqFbtqog1woafuGqZk98btFgxcYlwG3HTMkEpLCfPvffcz/MvfJvRHTu4cd9ecobEklVsbw7Tm8cOGozkbXKWzU03vQtn+0X89Tf+nCNHjiI6/FsJYW0wPES1Wo3qkPiqg7TEqyC9TEQfE4Bj2TiFPF89fpxbbjlI01e86937uebaPbx6doHA3orEiao323HwfRe/UQVvnj948F62j+7k2LFj7NlzfbQ7HoDSA7IZBsGSVWby97DRqw6ScdMJHe86YxqGsWQiudf9wyC+AljPlQ7a5Pj/G8KFsI+OaVcAAAAASUVORK5CYII=;strokeWidth=2;" vertex="1" parent="1">
          <mxGeometry x="1218.5" y="400" width="101.8" height="60" as="geometry" />
        </mxCell>
        <mxCell id="vGL_J0Q6EiAsAP9_54zJ-41" value="" style="edgeStyle=orthogonalEdgeStyle;rounded=0;orthogonalLoop=1;jettySize=auto;html=1;strokeWidth=2;" edge="1" parent="1" source="vGL_J0Q6EiAsAP9_54zJ-30" target="vGL_J0Q6EiAsAP9_54zJ-36">
          <mxGeometry relative="1" as="geometry" />
        </mxCell>
        <mxCell id="vGL_J0Q6EiAsAP9_54zJ-30" value="Physical Verification and Signoff" style="rounded=1;whiteSpace=wrap;html=1;fontSize=30;strokeWidth=2;" vertex="1" parent="1">
          <mxGeometry x="660" y="520" width="460" height="60" as="geometry" />
        </mxCell>
        <mxCell id="vGL_J0Q6EiAsAP9_54zJ-53" value="" style="edgeStyle=orthogonalEdgeStyle;rounded=0;orthogonalLoop=1;jettySize=auto;html=1;strokeWidth=2;" edge="1" parent="1" source="vGL_J0Q6EiAsAP9_54zJ-32" target="vGL_J0Q6EiAsAP9_54zJ-38">
          <mxGeometry relative="1" as="geometry" />
        </mxCell>
        <mxCell id="vGL_J0Q6EiAsAP9_54zJ-32" value="DRC&amp;nbsp;&lt;div&gt;LVS&amp;nbsp;&lt;/div&gt;&lt;div&gt;ERC&lt;/div&gt;" style="whiteSpace=wrap;html=1;verticalAlign=top;labelBackgroundColor=default;strokeWidth=2;fontSize=14;" vertex="1" parent="1">
          <mxGeometry x="1189.6599999999999" y="520" width="160" height="60" as="geometry" />
        </mxCell>
        <mxCell id="vGL_J0Q6EiAsAP9_54zJ-42" value="" style="edgeStyle=orthogonalEdgeStyle;rounded=0;orthogonalLoop=1;jettySize=auto;html=1;strokeWidth=2;" edge="1" parent="1" source="vGL_J0Q6EiAsAP9_54zJ-36" target="vGL_J0Q6EiAsAP9_54zJ-37">
          <mxGeometry relative="1" as="geometry" />
        </mxCell>
        <mxCell id="vGL_J0Q6EiAsAP9_54zJ-36" value="Fabrication" style="rounded=1;whiteSpace=wrap;html=1;fontSize=30;strokeWidth=2;" vertex="1" parent="1">
          <mxGeometry x="660" y="640" width="460" height="60" as="geometry" />
        </mxCell>
        <mxCell id="vGL_J0Q6EiAsAP9_54zJ-43" value="" style="edgeStyle=orthogonalEdgeStyle;rounded=0;orthogonalLoop=1;jettySize=auto;html=1;strokeWidth=2;" edge="1" parent="1" source="vGL_J0Q6EiAsAP9_54zJ-37" target="vGL_J0Q6EiAsAP9_54zJ-39">
          <mxGeometry relative="1" as="geometry" />
        </mxCell>
        <mxCell id="vGL_J0Q6EiAsAP9_54zJ-37" value="Packaging and Testing" style="rounded=1;whiteSpace=wrap;html=1;fontSize=30;strokeWidth=2;" vertex="1" parent="1">
          <mxGeometry x="660" y="760" width="460" height="60" as="geometry" />
        </mxCell>
        <mxCell id="vGL_J0Q6EiAsAP9_54zJ-38" value="" style="shape=image;verticalLabelPosition=bottom;labelBackgroundColor=default;verticalAlign=top;aspect=fixed;imageAspect=0;image=data:image/png,iVBORw0KGgoAAAANSUhEUgAAAH0AAABfCAYAAADF5MgYAAAAAXNSR0IArs4c6QAAAARnQU1BAACxjwv8YQUAAAAJcEhZcwAADsMAAA7DAcdvqGQAACEnSURBVHhe7V15kFTV1f+9vbtnejYGpiEoOhLZQhDEYsswRNC4EUtNWcaoRMtYUUNpEJMyITqf5VIaEzUuUdAymopDldG4BJeKQYIbKEuM7K5EwjBLDzPT6+t+793vj++eW7ffdE93zwBBv/lVnerl3Xffvfcs99xzl6eoqsoYY2CMoRAURQEAqKqa8/9A90C6j6BpGhhjyGaz0DQNuq7DcRy4rgvw/OV7iuVfDP776bdhGFBVFbZti2uGYUgp88PzPFFWTdP8l780UGpqapjneRiI8Z7nAUBOIyFPo/rhZzpjDJ7nQdM0nHDCCXAcB7FYDD09PXAcB4yxnMYshREDwV8+z/MQiURw3XXXIRgM4q677kJnZ6e4VgyMMUyYMAEAsHv3bv/lfvA//2iBahgGbNtGJpPxX8sBSTgkjScmktDQp6ZpME1Tuvv/oCgKVFWF53kwDAOhUAiapiGbzQJSvqqqCq0ny2DbNkaNGoXjjz9ePCubzYp0foGEZFlkYYpGo0gkEujo6EBXVxcymQwYY1AUBYqiwPM8qKoKxliOZfMLMHj9ZSoX1HZHGkogEGCe5yEUCsFxHP91wUjXdYsKhh/U0Pkaj0y7pmnwPA+O4/TrPvy/x40bh8rKSmzduhWBQACu68JxHCiKAsMwRAMSA0j4stksUqkUqqurYds2RowYgUAggM8//xyMMYRCIbiuC03T4DgOTNOE4ziiG/I8D5lMBqZp5mh6IUZTHQtdJ5CAHWkowWCQAUAoFBJSL8Pj/Zjc95qmKbSBtJEaPpvNIp1OAwXMs5/pmUwGlmUJhg0k+aNHj0Z1dTU++eQTuK4LVVWRzWZxzDHHoLGxEccffzwaGhowdepURCIR1NTUQFVVjBgxArW1taioqBAWIhqNoqOjA47jQNd1bNmyBR0dHdi5c6f47OzsFM/IZDIwDKMkph/tUCKRCIvH44J5MmQtd10XlmVB13UEAgHoug7btqEoiuiPg8Egstks+vr6kM1m+zGd8mOMYfLkyXBdF5999hls287rGNEz6+vrEQwGEQgEoCgKJk2ahPHjx+M73/kOjjvuOBx77LH+WwGfJpEwkUZTNyNrGv0mQdi+fTs+//xzrFmzBlu2bMHWrVvLYnq+LuFogDJq1CgWj8ehaVpOv00Nk06nhZTX1dWhtrZWMDwYDCKVSsFxHFiWBUVR0NnZid7e3rwN4me6aZro6OjA/v37oeu6YAiBGu0b3/gGzjnnHCxcuBDz588HJNPpOA7a29vxxRdfYN++fdi9ezc6Ojqwa9cuYZ0o776+PmiaJnyJqqoqPP/883AcB5dffjmamppQW1uLxsZG1NTU4IQTThBlAXdkP/zwQ6xduxYPPfQQ2tra4LouTNNEOp1GMBiE53lQFAWu6x7dTE8mk6Kg4A2qcKcrm83C8zwEAgGMGzcOiqLg4MGD6O3thaZp0DQN1dXVqK2theM4+M9//oNYLCaYK8PPdEVRsGPHDijcgdJ1HdlsFoqioKqqCj/5yU9w1llnYe7cuTn5bN26FdOnTwcAzJgxA1VVVXjzzTcBAI2Njfjss8+ElWHcIfO400T9vKZpmDRpEt5++204joO6ujo4joNUKoWZM2di06ZNmD59Or7+9a/jjDPOwPjx49HU1CScTsMwsHnzZjzzzDNobW1FV1cXstlsznDUX/+jBQWZTp/ZbBamaSIUCuHYY49Fd3c39u3bl2MV6uvrhRX4+OOP0dfXJ67J8DPd8zz09fXhwIEDQssXLFiAH/zgB7j44otF49m2jS1btuDFF1/Ee++9hw0bNqC9vR2hUAg1NTVwXRe2bQvBgc+My42vcC+dBKutrQ2Koggm5WOWpmlQFAVTp07FBRdcgDPPPBOTJk0S9VEUBU8//TSefvpp/Otf/0Jvb6/oTgaCkqdLPRLIYTqThl30PZvNIhgMorKyEpWVlTh48CAOHjyYk4lpmgiHwzjhhBOwb98+4QD5K+5numVZ6OzsxIEDB7BkyRJcfvnlOOWUUwCuSWvWrEFrayuee+45AEA4HMbYsWOxbds2xGIxmKYp+nliMlmlVCoFRVGgcY+cGCcLdENDA/bu3QvP81BTUwNwYfELP/X76XQa06ZNg6qq2L17Ny644AKce+65+O53vwvGGEzTxPr16/H73/8ef/3rX4uOdpQSvfxDDWXMmDGsp6cHkCpHjpmiKEin06isrMS4cePAGBPjW4Wbf9d1EQqFUFtbi9GjR6OtrU0EPOTKUAUBIBgMYuLEiVBVFdOmTcONN96IxsZGAEBHRwdaW1uxevVqbNmyRdwDACeeeCIURcFHH32EWCwm+mcSJIL8LPn3+PHjwbg2J5NJhEIh/POf/wTjTmgpoHLv3LlT9NuJRAKapqG7uxt1dXVQFAWffvopli9fjjVr1oAxhqqqKti2LZ7ruq5QiiPN9AEHibKkU182WDiOI8a+tm1j5syZuPPOO3H//fdj7Nix2LFjB66++mrMnDkTN954Yz+GFwMxVmY4jSDGjBmDSZMmwbIsZDIZRKNR9Pb2SncPDaQs48ePx9KlS7Fnzx40NjZi9erVWLduHc4++2zE43EhHDRa+m8hL9NJc4jpZCaLYSCJlU3vqlWrcN9996G5uRnRaBRLly7FrFmzsGrVKnzxxReHzPNljKG6uho1NTVgjGH37t344osvsH//fnR1dfmTDxmJRAIrV67E1KlTsXTpUnz88ceYM2cOnnrqKaxcuRKqqqK2thahUAipVEoIS6G6KpL/MRgqBFXud8nDJRATGTf1paIQ888880y8//77uOiii6BpGh566CHMnj0bK1euRDKZFH1pRUVF3rCqH8XKRKHeWCyGHTt2gHyXQCCQI8TF8ikVuq7D40O2xx57DCeddBLuuusuhMNhXHbZZdi0aRPmzp0LxhgCgQDge3apTBsqlEgkwvzeNvXpkEzkqFGjMHLkSGSzWbS3tyMajYIxBsuyRFiTzHRXVxeCwSDS6TQURUE4HMb111+PlpYWEc6kAEi5oCEd3UuCOpi8DhUKCbkfjDvHDz74IG644QaAW8BsNgvLsvzJh4xC5RJMl7WZghqQbgyHw6iurkZVVRUMw0AsFhNm2LIsmKaJZDKJTCaDvXv3AgAsy8KMGTPQ0tKC008/XTDM8zzB+HIgM5pMo/z9vwFqN/kzH6htGe82165di0svvRTkRBe6bygolKcSiUSY36mRhy3kxBmGAV3XUVtbi9raWig8/ErDErqWSCSwbds2HHPMMVi8eDEeeOABAEBbWxuWLl2K1atXQ1VVfPDBByWZcD/6+voQDodxyimnQFEUvP/++4jH4wiHwwUrWQiO44jAzzvvvOO/XBSu6yIQCGD69OmwLKvoCMCyLCxYsAC33347Jk6cCNd1cdFFF+Gll14SQ8pDiULtkVdFKDGZI2JwKpVCZ2cnPvvsM7S1tWH//v1oa2tDR0cHuru7kUwmhYP0/e9/H7/97W+hqiqeffZZzJo1Cy+//DJM04Su60gkEsKjL5UYHwurqgpd10W/TAEVEtZSiayEKkXsyiFwwTFNU2j5QBSPx/HGG2/gtNNOw5NPPgnLsrB69Wo88cQTR7R7UimIAd9qEJVHspjPiXMcB7ZtIxqNwvM8pFIp2LYtwrDZbBZ//vOfceutt8KyLFx77bVYsmSJmNEiFJLCQqBuQeehWmIa43Pl2Wy2XyMXo6GA7vfK6F50Hl3s7u7GNddcgyuuuAKWZeHSSy/FH//4R6h8sse27ZLzHAxUxmPThUwLNZDCgzGGYYgKx+NxRCIRTJkyBRoPeb7wwgtYuHAh4vE4Zs2ahT/84Q9IpVJDHud/FfGnP/0Jc+fOxc6dO3H++efj1VdfRSgUQjAYhMPXCRwOqMRQ/ziczBeBMYaJEydi3LhxaGxsxMSJEzFlyhSMHj0asVgMVVVVePzxx/HNb34Te/fuxTnnnIOtW7cK8+efZqU8y0G+9HI5/ZpcjI4GfPDBB7j22muxZ88ezJ8/H8899xyYtNLncDBehTQ+JHMpLnILQBSLxWDbNly+qMLzPGzduhXhcBgrVqzASSedhFQqhQsvvBAbNmwQjo1s1o82UN0Gg8HeR9A0DclkEhs3bsTpp5+Obdu2obm5GZs2bYJpmodNMFV/xvTb/7+iKDhw4ADa2trw73//G59++in27NmDSCSCq666CosXL8aGDRuwePFi7NmzBzU1NUilUkCRlaN+7RuIvmpw+Vy84zhoa2vDxIkTYRgGxo8fj4ceegg2X7uocEf6UEGFr+EhmUxZ08EDI+QwKYoC0zRx66234uqrr8Ynn3yClpYW7Ny5E6ZpHtbx51cV5Lx5noeLL74Yd999t3D+zDwLTQcLFdK4XGb8QKbLsixUVlZi2bJl+NGPfgTbtrFixQqsW7cOAFBVVeW/ZRglgEZMS5Ysgeu6uOGGG3DttdciEAiIdYeHAmJc4O/PC0Hj05kVFRW46aab0NPTg1tuuUUEXWKxGLq7u8X8tIzDOQz5KoBM+EsvvYQf//jHyGazuPvuu9Hc3HxIw7SqzGxZ04lBFLxQVVUMy6LRKF5++WVUVFSgtbUVDzzwgLhuGAY0TUMikch5EIpYj2KQBXIoztehgpIn5Co7vYMhXdeh8Hq1trZi1apV0HUdN998c85zwBeuDBaq3J8zHoFT86x6IaiqijvuuAPTpk3DO++8g2XLliGZTOYdkvlBFRpGaVi2bBk2btyIOXPm4Je//KWITFIwarDI8d79DPd8U62apuHcc8/FTTfdBMdxsGLFCvFwuRAkucMYGjRNw2233QbGGFasWIHm5mbofGWv38qUgxxNL6Th9B9jDD//+c8BADfffDPeeustoeFkmoaZfeigqirWrFmDO++8EwDQ0tICk+/YGWgYXAyKZVkMUp/pSlOqJAg0oXH22WeLRYqDBePDvUwmU/YkgyrN+IHnlU6nCzo5R8JxdPi6APo8FJDr6Mc111yDlStX5oTDC6HQdcWyrJytyrJWk+NGW482bNiAKVOmiEoWQ76HUmEPhUVgjCGRSKCyslJsyJBR7Bm0oIO+++8vhixf7zeYad18oPKmUikxle3Hrl27MHnyZKGMA6FQmQZkuq7rIjiwYsUKtLS0YOvWrWhubi66vBd5HqqqKhKJBFRVxfr16/N2JQPBNE0kEglUVFRg5syZ0HVdbFawLKufIPqf74dpmpgzZw4A4N133x2Uc6QoCubNmwdFUcSGi8Fi/vz5YHwpVT7z/frrr2Pu3LloaWnBHXfckWPJ8ilSofqLPj0fAyzLQjKZBABcddVVAIC7774biURCROfKJSooDe3KIcbn0yGtomHcItGslEzFIAc80uk0qC1KpXQ6LRY4KiXMpxcj8O41m82KuQ2Z7rnnHgDAlVdeKdbYDQYDdnrJZBKBQAAXXXQRxowZAwB4+umn80phPvgbX77PkzY+FCJ/pV2+PEu+NlD6YpA1ZTD9v2VZOf7FUAlcmGWBlumVV17B5s2bEYlEcMUVV4AxJqwc3V8KcmpKDUUZUOMtX758UKaP4Gf+MAYHwzDwyCOPQNM0XHLJJQgEAuJcgVKEnDCgeDPGMG/ePJx00kmHZZ34MMoDYwxPPvkk2tracPLJJ2P27NlIJBJixFUq+jFdNhOqquLKK68EYwyPP/54TrphHHmQRj/yyCNwHAff+973ctYMlgqVFXDiwM37ggULAABvvfWW/3JRFHOs/H2Wn/6/wt9ejC/6zPJp7Q0bNgAAzjnnHLjSjt1SIXa45Gvob3/724hEItixYwf+8Y9/5FwbxpGDwpezqXxSa+3atdizZw/q6upw6qmnorKysixHVKXE+TSxubkZjuPg3XffHVCS/Brtl9T/r/C3RzEqBpefqqFpGt544w1YloX58+fnDFdLQc5eNj/OP/98AMAbb7xRtrMwjEMPwzDE8qk1a9bAcRyceuqpAypkPgibQH27aZrwPA+VlZWYOnUqTNNEa2urGI+SNJFkkSNRinmR0wxmCEjjdIXPPeu6LhYQ0jp4mfw+gp/kmL3Ft2aVQ6qqijwUvkRcJr8mFyOC/zf9Byny9re//Q2qqmLGjBlCGPzdsz9/IpUyokTEjEgkAvBYL2VKDZnlmw1c10U6nS6ZgRQBy+c/lAJXOtSHIny2bcPiR5L5K1eMksmkEBDah1cOua6LeDwO5FkyPhRQRC5fGxn8vDxVVfHpp58CACZPnlzWvIGiqmpOzp7nIRwO4+yzz0Zrayuef/55nHfeeTAMA8lkUvQp/qgcnfo0ENavX494PA7TNLFu3bq8S6oGQl9fHxQu8U1NTXAcR+xBI8GUQWkLQdM0zJs3DwBEDL8c0DCJ8vjggw98KcrDlClToKoqKisrAQDf+ta3cq4rPL7f1NSEN998E88++ywWLVqECy+8EK+99lrpgqeqKiPSNI0BYPX19WzZsmXM8zx2zz33MNu2meu6zLZtxhhjyWSSeZ7HPM9jruuyUhGPxxljrKx7ZHiexxhjLJPJiP8ymQzLZDLMdd1+RGUslcpFNpsVbcJ4vYZKjLGcPAuByuu6Lrv11luZoijMsqySSCVTB8lEdXV14YwzzgD4+Jz6EdM32QEuff6+shCFQiFxj18rS4HCux/ZlNF3f39aSp9q88MPKe9yIbcDyxP7JyLIz/aXlcrrz7cQKK2qqmhubkZFRYU/SUEoAPp3HABee+01LFq0CIsWLcLbb78NxnddMsawZcuW0k2JBFVVMXv2bCiKMqipTEVRkEqlYJomZs+ejUAggA0bNuT06+XAdV3Mnj0bhmFg48aNZY9QVL5kedasWVBVdchTq01NTQA/iUMt4ZyfefPm4e9//zvee+89nHbaaSVv/VZHjhwJP40aNQqjRo0C+GlPjM/mgFfUtu2c6dJSKZVKiYYlR6gcYowhHA4LnyLLz2w1TVNstyqXSGMG48il02nhVBH81s1vAfzPl4mQTqfFlPZAICYzxsqynOqYMWMwZswYRCIRNDQ0oKGhQTCdGBwIBGAYBky+t5wm+QdDOj+XpRTz6yfG57BNfuKjYRgIBAKiwv5GLEYOX+Lk8ZMkBwPysukzH6PLhWVZsPixqySU+RCNRuE4jjiOrVSoMjNoYUNlZaXQdNpmTBVhfEwsS3ch+CWe8SGI3IeVQ4yv2XP4MeGMMdEvy5pSKojRlHe5kMvmbw9/uYn8dZKJQMIitxnytCedqTtixAiRphSo8Xgc8XgcqVQKiUQCqVQK6XRajKkPHjwozPkwBod8jD0UkJWoHP6o7e3taG9vR1tbG/r6+tDT0yMO/B0M/Fo9jMMHuY0LrQjOBzUWi4EonU7Dtu0cTa+trc1ZFjSMowfUBff29pa1wVGVHY5EIoG+vj4kEgmRSX19fVHz8VXRbn8fW4yOFAq1LTF9165d5Wk6fVH4xneVH/JLMeVIJFLyXjV8hQTgywASPMaXq5eKnFk2xhgMw4DD35YArumBQKDsuPQwDj8aGhoQj8eRyWTEKKYUS9Rv3EWaTm9niEQiSKfTMAyjaGbDyIWfCcXIj2LWcvr06TBNE5s2bSpLKVX/w7L8KM8XX3wRiqJgxowZCAaDMPkBeQoPhWYyGTh866wc8Bgo+iT7BTT2L4c0/p4ZhcfgFelULKWMOQCiZDIJxhuW5hVk+JniJ9u2xf0UNxgKbNuGw8+Rk0Oq/ucSTZgwAaZpYtu2bXlj7/70RDkTLvL37du3w3EczJgxQzQ2wbKsfpG2Usi/aIGCNOWQHCiSGe9PVwqFw2FR53w+i19I/BQIBHJ2mvgbdzDEuHDnK48fkydPBgB8+OGHyPAVNTIVgphPZ1K0SOXRJTqUPpVKiePBVFVFKpUa1LYaCumChy+1MkOfA1VkKCCr5M+f2qEQHL4kORAI5NVyf37FQGHhRCIBXddL9sjpdSv+0z/ylQkUhoXPE6R4MS17DgaDUKWpPzkuXA7JgqJL+9lLJRQ4G8f/u1QwHjNXuKbTEiwiv2Xwk8nfIUPIV97BwCxw2GI+fPjhhzAMo997dQaCcswxxzD5UEDGY+sAsGLFCvzqV7/CY489hp/97GfiLUyFJLsYwuEw9u/fD/BVNKVWTAY15pw5c6Bpmpj2zYdC/8tobm4GgLxTq6U4R4qioKmpCZ7n9dsbUMrzZVBZAvxlRATKh7oVz/PwxBNP4JJLLsEvfvELPPzww8JaySj0fLWqqgojR45EfX09qqqqEOBvV9Q0DS+99BJ0Xce5555b0lytX9L9mpFIJIRDOBiGH2qQ+SZBJ8eU6GiB3J6hUAgqXzjhOA7efPNNMcVbKlTLshAOh1FVVYWamhpxkH8gEMD27dvR1taG0aNHY8qUKYAkbfkge+7kaMkk31cojyMJaqihmOIjBWJ6NpvF9OnT0dDQgI6ODmzatKmfhheD6vFVpJZloaKiIof5lmXhhRdegOM4WLx4cc6NckORJBqGAcuyEAgEEAwGRV5E5PiU46QcbqQH2Jd+tIHxqeTzzz8flmXhlVde6TcqKgVqNBrNWQFCiyUC/DWbf/nLX6DrOq666irQ2fD+BpF/jxgxArquo6+vT8zFq3yDXSQSEdJajjmSQVKdTzvLZRqTjj0/msx5PlB9gsEgLrvsMgDAgw8+KK6VUl+C2tXVhQMHDiAajQoGyatkdu3ahbVr1+JrX/tazgtk/Q9i3MHQ+Xk0Kj+pyrZtxONxsRwJnGHlmqRh/N+Q94c//CHq6uqwfft2fPTRR/4kJUFNpVLo7u5GV1cXenp6xCBf4wGZqqoqPPPMMwCAdevWoa6uDijQJ6v8UCKT75IB7zdpPRktrNT4O9qGUR50XceSJUtgWRYeffTRfopXKsQOl1QqhWg0KhhPHncgEMDrr7+Ojo4OzJkzByeffHKOxspg0oSNwkOlLl9apUhhy3xdxDCK46yzzsKUKVPQ1taGJ5980n+5ZOTE3knraS6dYsG6ruPXv/41LMvCTTfdBKvE5cY09DtS8AthKaBh29EKRVFEt3rLLbdA13Xcf//9cHwLMctRon41pokRz/NQXV0Nh4dLV61aha6uLixatAhXXHGF/7ZhHAYwHjHs6enBkiVLMHHiRLS3t+PRRx8dkrCqyKMh1O9SBI4xhlgshv/5n/8BAPz0pz+FXsak/ZGEvy5fZpDCBQIBLF26FIFAAA8//DAqKipKsrSFkCMuCh9vU0SKZtM8zxPOw/r16zF27Fi0tLTItw7jMKCiogK6ruP666/H+PHjsXnzZqxdu3bIox9Vdqp0XUcwGEQoFBICkMlkcPDgQaRSKXiehzvuuAPBYBDLly/HwoULhQmiuL2iKIjH4zmLLkj7Ro0aJX67fO7d5q+qoHIMRDQyIFC+5DzSSAElbnww+R5zSJMcMml5podlkq2dyo8G8V8vh8CtKk1wJRIJLFiwQLT57bffLvL2WzRqV3lIDb6TiNqEhtSKqqqM8Q36qqqipqZGvE9V48O2aDSK/fv3iwb6zW9+g+uvvx6bN28WBxdAmhok5tODZWSzWZj8IAFK469AIdD4n4aGJFhDgSdtS/KX1//bD2pEqsNQTC6ksDAJgOM42LlzJ6ZOnYrf/e53uPPOOzF69Gj09PRg7969ot2pDUiZSOConcCFmvHRlaJpGjNNE1VVVbBtGyNGjBBBfZdPQuzevRvg0myaJlzXxXvvvYdp06bx4vZnODEIeQ4lNPjGemq0bDYLnZ9jXgqo61H4MJAsRSEMxDzGo3L03X9tIKh8tYy/voMF3U9tSVq7ZcsWNDU1wTRNNDY2ore3F59//nm/euu6jkwmA03TUFNTA8uycphOiqxUVlayyspKhMNhJBIJVFdXC+ZZliVWZVChqCAnn3wyNm7cCM/zcN111+Hhhx+Goiior68XEpfir+gi2HynDN3PeNewb98+ePwVnsVAmt7e3g5FURCJRHIESOMbG/USTqr2+LJvlc9e+Zns/+2HYRhQ+etNNE0r+oLdYkgmk1D5ip7zzjsPTz31FNLpNBYuXIh33nkHI0aMwNixY9Hd3Y2Ojo5+QmYYBmzbhqZpGDlyJEKhUA7TSUjUSCQilg3V1dWJ/iWTyYglUwafBpU1dtOmTVi+fDl0XccDDzyAhQsXwjAM9Pb2IhqNIhaLCYeQSDaDivQaz2QyWRLDCbZtQ5f23nl8Ri8UCgmBTafT/Z7vJ/IrwH0A5vMhFN9UMREhk8kgkUjA476EP125REy88MILsWrVKgDAbbfdJk7bUPizqXx+KPwMAcaYcAI9z0MsFkM0GsXevXvR1dUFtb6+HvX19WKiJJVKibck2/xQOmoYP+677z5xBPWrr76KqVOniobM5NmKTFB5X+PwV3GrPGJXiEi7yYGR09MS4EgkguwAZ7XkAzUifS+VqDxkSUh4/enKpSxfOProo4/Csizce++9uPfee1FVVYVgMAhL2s1KaeXyk+DKZVL5BBfNfXieBzWRSIhtTfv370dnZyc6OzvR19cnJG+gRrztttvw+OOPw3EcPPHEE5gwYYLQEjIpRB731sF3jJIkljs1SPA8D8cddxxGjhyJzs7OnO5DK2GxpLzUaTBr/sDLkOV77w8FSGifffZZtLS0iHpomoZYLCbq5+cJk07YUvjpW650jLjDx/ye50Gprq5mlEGGH0tFvxXuoHjSurR8DwRnIhWMugPF51zZ/MSIfChkTeDzTuF73UU+U0eaUwzpdFp0Z7ZtizwJxfJQpNeSZPjbL4YKxg9eIAtL/onHl0MFg0Gk02mhVHIZmeSUTpgwAYlEAr29vYInwiKZpilajBgqN6Lc19H1QowHb0iLnz9eKM0w8kNRFCQSCTQ0NEDXdcRiMX8SQIoJkHATo2WceOKJSKfTOHjwIGKxGFTeHYXD4VymE4hZsqMDnyMxEEpNN4xcBAIBMe8xEIjp9J2YTp+u6+LEE0+Ebdvo7u5GLBaDxmMuFRUV/SdcZOR7eCmMlM3MMEpHOp2Gy6eiVclZHQqom4B08saAnJEfWsrDKY3KAzt0/5eVhgp/fqUSMWqgLpK6WYIqvVOvUNkV6p4Nw+iXK93s1/RCBRjGkQExk4RD920YIRCfwuEwkskksvzlfQZfBteP6TKj/UxHmYwvJHFfBpRTzyMFP9P9cQv4ym3xt20x6XVrpmmWbt7LwWDvO5pwNJafGEpmv9BvAnURxA8ar+doul+z5Uz9/w3jvwMSRnKUZW33Q/Ft6fb40e4KPwS4H/ySNIyjB7IlVaSYCWk1gWYzIc0IopD3Pszkox+FTLv/u5yeqJ+m+xP6/xvGfx+ylvvNvXzdb/LF//Kfw8z9coH6cjmQU0pQJ4fpAyUcxtEFP4OLMRqSif9f6CC1yX8HLk4AAAAASUVORK5CYII=;strokeWidth=2;" vertex="1" parent="1">
          <mxGeometry x="1229.93" y="640" width="78.95" height="60" as="geometry" />
        </mxCell>
        <mxCell id="vGL_J0Q6EiAsAP9_54zJ-39" value="Chip" style="rounded=1;whiteSpace=wrap;html=1;fontSize=30;strokeWidth=2;" vertex="1" parent="1">
          <mxGeometry x="210" y="760" width="320" height="60" as="geometry" />
        </mxCell>
        <mxCell id="vGL_J0Q6EiAsAP9_54zJ-40" value="" style="shape=image;verticalLabelPosition=bottom;labelBackgroundColor=default;verticalAlign=top;aspect=fixed;imageAspect=0;image=data:image/png,iVBORw0KGgoAAAANSUhEUgAAAJcAAABZCAYAAAAzfba9AAAAAXNSR0IArs4c6QAAAARnQU1BAACxjwv8YQUAAAAJcEhZcwAADsMAAA7DAcdvqGQAABtESURBVHhe7Z17cBPX9ce/uyutbMvgoThAmCYlFBKeMdjmUUiCTZPyDHFLAwxgDNNxbQNNAoVJYFIglNJ0SoEUSMk0wdS05dXEFGyDB5IaXAgowS4FB5qWUAgvx0B4yJa00u7tH789+7taS7YkPzCgz8yOLe1Du/d+77nnnnt2V9A0jQmCgChRmhuBMcYAQP8TJUqzYYgrSpTmRoxqK0pLIZq/iBKluYiKK0qLERVXlBYjKq4oLUZUXK0AYyxoqIe+dzqd5lX3PFFxtQI+nw+CIEDTNGiaBnCior/x8fF++9wPCNEIfetDgvL5fLBarfB6vZAkCaJ4f7X1qLhaGMYYrl69inHjxqG6uhqxsbHo2LEjYmNjkZ2djYkTJyImJsa8231BVFxNxOv1wmq1QtM0iKIIn88Hi8UCr9eL7du3Y+PGjXA4HBg9ejQmT56Mzp074/Lly6ioqIDD4UBVVRUAoG/fvujfvz+mTJmC9PR04ziapkEQBPB1RJaPulrz+rZCVFzNiKZpqK6uxp49e7B06VLcvn0b06dPx4QJEzB48GAoimIIRlVVyLIMVVVx6tQpVFVV4dChQ6ioqMCNGzeQmJiIRx99FMOHD8eUKVPQv39/Q3DQBdbW6y0qribgcrkQGxsLRVHg8XgwZ84c7Nu3DwCQmZmJl19+GTabzc+vUhQFjDGIoghJkqCqqt9IUhAEMMZw5MgRnD59GkeOHMH58+fhdDpht9vRuXNnTJo0CWPHjkW3bt2M/RRFgaZpkGU5JN+NF2dLCTUqrjAIVAnXrl3DlClTcPLkSXTt2hU/+tGPkJGRYQhHEARDXIqiwGazwWKxQFVVv+OAOz5jDBaLBZIkwefzwel0IiEhAaWlpTh79izKysrwr3/9C4qiICEhAc8//zxSUlIwZswY2O32kHw46sbN/zcnUXE1AGMMqqoaXRHfLRUXF2PlypU4deoUBgwYgB//+McYPnw4bDabYaEAGJVGoiEB0Wcefl0oVFdX4/PPP8c///lP7N27F9XV1fB4POjcuTMyMjIwZswY9OjRA507d4bH44HNZjN8NBqpIiquuwMvJopPbdy4EcuXL8dXX32FzMxM/PCHP0RKSgoEQTAqiKyS2dKZPzdGY9uqqgqbzQafzwcAsNlsuHHjBiorK/Hxxx9j//79+Pe//40OHTpgyJAhGDlyJPr164ekpCS0b98eAGC1WuHz+eDz+RATE1Ovi24KUXE1gKIokGUZV65cwerVq7F582ZIkoSJEyfilVdegd1uN7o8TdMM8ZDIwhWTmcb2tVgs8Hg8kCQJ0H/ParVCFEW4XC6jcZw+fdoYNBw/fhz/+Mc/0Lt3bzzxxBNIS0vD4MGDMXToUAiCAK/XC8YYZFk2/1zYRMXVADdv3kReXh7KysoQHx+PadOmIScnx6hATdOgKArcbjfatWsHcF2pucuLhMbqhTEGSZKgaRp8Pp/ho8XGxhrrGWOGZQN3zHPnzuHo0aM4duwYKisr8eWXX6JHjx7o168fJk6ciD59+qBv377GfpHwQIjLXNENXa/P58PevXuxYcMGOBwO9OzZE9nZ2Rg9erRhIaB3k7yPxFssfoqHfpu2uZuYuzxVVSFJEiRJgtfrxcmTJ1FZWQmHw4ETJ07g3LlzGDZsGAYMGID169eHff4PhLiCwftUiqJgz549WLx4MS5fvozRo0cjKysL/fr1Q2xsLERRNMRClsksmEDi4mkL5cyfE/1vs9ng8XhgsVggiiK8Xi8+/fRTLF++HMePHwf0awr3/B9YcTHG4Ha7oSgK1q1bh3feeQdXrlzBzJkzMXnyZPTr1w/QnWaKSZFoEEBIgb672+KiBmD+n/9MI1uKj+3YsQMbNmzAZ599ZmwbExODurq6sM//gRQXWaDs7GwUFRWhXbt2mDp1Kl566SUjGMk7yQSVUyjDdl50dwvG+WRmodGiaRpsNhvef/99/OpXv8KFCxeM/ckyS5IEj8cTFVcgMdD3giCgoqICP/nJT3D69Gl06dIFs2fPxuTJk+H1eo3pGHNlmI8BXWBtQUANoenxK1Gf87Tb7Ub353K5cPPmTaxduxabN2+udy18OY4YMQJlZWV+60Oh8SZ4jyFwwUrGGLxeL5xOJwoLC9GjRw8MGzYM8fHx2Lx5Mw4ePIj09HRDTCQsOo4Z/jtzZbRF6HzJX3I6nZAkCSdOnMCcOXOQkpKC9957L+i1BCqDcLivxMX0YbcoihAEARcvXkR+fj769u2L6dOn4zvf+Q7279+PgoICDBkyBIIgoFOnTgAAu90etJDvVSQ9R4y6x8OHD+OZZ57Bs88+i9LSUni93qBdfFOFhfuxW6SuIC8vD1u3boUsy5g1axZmzJiBTp06weVywWq1QpZlaHp8iOnBRz4edD8gyzJ8Ph8KCgqwbds2VFRUIDY2Fm63G+C6vobqnzEWcbd4z4mLRjY8JKgvv/wSWVlZqKqqQkJCAhYuXIiMjAyIomhkI9C1mguW9zGItlwuZI3AuQLg4m+MMbz99tv405/+hPPnz5v29ifQdfLlEam4AtvEewQqgMLCQowYMQL9+vWDoij47W9/i7KyMmRkZMDr9ULQRzxUCbQf/c9/d6/AB3Tpf0mScPnyZcybNw/f/OY3sXLlykaFhSANqzm45yyX1+uFxWJBTU0NSkpK8Itf/ALXr1/HqFGjMGXKFKSkpCAmJsYvduPxeIAAhcgaiAMhSIu+m5jPUVVV1NXVQZZlnD9/HuvWrUNJSQkEQUBdXR2gCy5Qek84RGq57ilxMcZw69YtzJ8/Hx999BFu3ryJWbNmITMzE4mJiYiNjTX8KOjhAqvVCsYYFEXxqxi+KwlGWysXs7jq6upw+PBh5Ofn49ixY3C5XH7bk7D4BhQJ9524SCTkX9XU1GDatGmoqKhAXFwcZs2ahZkzZ0KWZdhsNr/4FAJUhJm2Li7zuVksFvj0HCyXy4WioiK8+eabuHTpUquMcmmmIhyE/fv3M6/X22TT2RzQBCrlFbndbjgcDuzatQs1NTXo2rUrcnNzMWHCBL+KF0XR7/zNojBXFO4BcUE/b0qriYuLg8vlwvLly/H73/++ydYoHNLS0vC3v/3N/HWjCCUlJYwitryTeDfweDyQZRmMMXz44YcoKCiAz+dDamoq8vLy8Mwzzxj+hCzLUBTFmFRWFMVoWfSXWnSgCmhL4gpmZSU9Y+HcuXN488038f7775s3aRXS09Px0Ucfmb9uFGHPnj1M0zS0a9cOd+7cMa9vVTRNQ0lJCXbs2AEAeOGFF5Cbm4tHH30UqqoiPj4et2/fNmbvKUgYrFtoTFxthWDiOn78OH7961/j2LFj8Hg89RpNSyMIAoYOHYp58+YhIyPDSIsOFcPnChQ/am4oHgW9QCl1pba2FvPnz8f27dshSRJycnKQl5cHu90OQZ881fQpDD7dhSCBmX2C1qqESKFuj+b9bt26BQAoKipCQUEBKisrjVx86lWYPtncXNCgh3LsKajcpUsXXL582ehNIkHQNI2RoxiohTcHgVolAJSWlmLJkiU4deoUHn/8cUydOhVTp06F1+s1ujuNe75CqLR2C48U8jGhPyti7dq1+MMf/oBz586ZN4XI5ZM1N3Tjhs/nw6BBg+BwOIwcL0VRjB4iXASPx8MiVWYkaJqG0tJSLFu2DGfOnEFqairmzJmDIUOGQNXvtAkmxvsRt9uNn/3sZ9i6dWu9xmCz2cD0yfeWEJUoioiLi4PNZsNTTz2FTz75BDdu3IDb7TZ8Ul7Q4daLUFRUxMg8t8QF8JSWliI/Px+apmHMmDGYPn06hg8fbph+TdNg0e/pE/S0YXOB309kZWWhvLwcqqrCxz0Jp7UYPHgwnn76aWzbtg03btyAy+VCTEwM3G43RFE0RqqRIhQWFjKLxRKRz2Wz2YwMRVEPByiKgvj4eOP5CXfu3MFvfvMbnDlzBh6PBzk5OZgxYwYSExMBvTWQyeW7s0BmuDULPhJkWTaS6uj8yQL4fD5omoaysjKsXr0aZ86cMeY7W7pRE9RYMzIy8Oqrr2Lo0KEQ9QwScHVBXTW4Mg/XagGAsHv3bkaVGe4BKLDGWxropl5RFKxevRpnz55F+/btMXXqVMydO9cYcXj129sRwCG/V8VFQiELRMK6evUqHA4HVq1ahdjYWFy8eBGKorS6uF599VXMnDkTvXr1wo0bNxAXF2fcKQRTRJ/Oia4jEgyfKxLLBU4IdBK7d+/G66+/jitXrqBbt25G0DMQ4RZqWxcX9HNk+ohO0zS88847eOuttwJOzdD1hFsOjWEWQ0NCCfSZth8+fDjKy8shCALcbndIjwngEVRVZUITbnuiQiwvL8dLL72Ea9euISkpCXPnzkVKSgo0TTNGovTgjkgnU9u6uMhqqaqKefPm4S9/+QtEfZTHr+etPX0fKo3tQ8fnLaL5L9WZpufPm/dnjCEpKQl///vfYbfbAb2XojulQkWMpDvkmTRpEmRZxsiRIzFkyBBs3boVBQUFGDRokBHsJGeVfouGt/xFBloI8+e7BRWuzWYzunVKyAOAixcvIjMzE927d0dhYaHRtVPjpXLWTBYknMYdaDtBECDLMiRJQnJyMiwWC+Li4sybGYi6sx6sp4qPj8cvf/lLw1IxLncsHJr0ehZZluH1evHiiy/i5ZdfRvfu3Q0BCfrDLqhCKDin6E96CQXeB2sLUEOhrFWLxQK3240DBw5g/fr1qKqqMqahyAKgAStjJpTtJEkyrJKg56nZ7XYsXLgQWVlZeOyxxwyHnD8HBDm+WayCICAmJgb5+fmYNGlS0O1CQSgqKmLgKpKnsUp98cUX4fF4jAvVNA2JiYlIT0/Hc889h3Hjxhndn6Qn65F/FwpmcdHv3C2YHrKhnLJNmzbhrbfeQnV1tbENnTNF3mm/UAi0nVkgZEE0TcM3vvENzJ8/H4sXLzbKhia4AxHo+NSDyLKM3r1748SJE0hISMC2bdvwve99zzAUkVBfUWFArZdiZJIk4dq1a9izZw9ycnLwyCOPoGfPnvjBD36ARYsWobS0FG63O+y+mwhUOM2FqN+C1RCSJKG2thaLFy9Gly5dsHjxYtTU1ECWZQiCYES6oZdNSyIIAr766issXLjQ73uXy4V27dr5dWPBBELuRkpKCo4cOYIXXngBop4E0NB+odKkfC76cWo1oVQ+OfMDBw7EkCFDMGHCBAwYMMCwBvTUGJ/PZ3Sf9D8F9ETuqXzNDRUu5YiJuvPt0Z8cWF5eDo/H4xcLIiItR3ANh66Trk/Sp168Xi+Sk5NRU1OD6upqeE1P1qG/FtOD5URRhN1ux86dOzFq1CjuF+uzdOlSrFixAjabDR988AFGjRrVpGtquKmGQSjCArddZWUlNm7ciPHjx+ORRx7BoEGDkJeXh02bNuH27dt+M/AqlwhIfk9LWgZZluF2u2G1WnHs2DGMHz8effr0wb59++B0Ous55E2BmeJc1IBI2BaLBbm5uRg6dCiuXr2KmzdvNupW8OdmtVrRo0cPpKWl+W3TGjSbuEJB1m/nIssj6H6aqqpwOp3YvXs3li1bhieffBLf/va3kZKSgqysLGzfvh21tbWGJaNwRnNDlawoCgoLC9GnTx9kZGTg1KlTRsCTLFm46Sfgjk+CMjdIQX/EpSiKGDBgANasWYO5c+di3bp1qKysxJUrV4y0KPO+wfB4PEhOTg55ENWctKq4VP0JxiQo8lUodZe6RK+eGXvp0iWUlpbitddeQ/fu3dGpUyd8//vfx2uvvYbi4mLz4ZuMqqpYt24d+vfvj1deeQU1NTVg3J3Yoh4slrjHUjYnjDGMHDkS+/fvR3l5OXJycrB69WpI3LMarFYrJD2JMFTo2WGtjbB7926GIP5CY62D0o0b2y4UIvl96D5cUlIS+vTpgxkzZqBXr16A7mvIelaranoYG+UvifqdQZqmYeHChSgtLTXumuF9vOa6xsY4evQokpKS/CLhJCKydBT+4a0f73PJsoyEhATk5+djxowZ+Prrr5Gbm4vf/e533C8FJisrCwUFBZgwYQLmzp3bZNdDpNFeJEtzwhcWLY1BXVRFRQX+/Oc/Y9y4cejWrRtSU1ORnZ2NzZs349y5c8YAwaKn81C3fPnyZeTm5qJ3794oLCw0JuEFPdBL/yOI+CNBbGBEmpSUBJuesBesYi0WC2w2G+bNm2deZcznXrhwAWPHjjWvbhRJkjBs2DDMmDEDtbW15tVhI5SUlERsucaOHdtqrToYVFkUAqCui6C4WmJiIp544gmMHTsWXbp0wbp163Dy5Emopona1mDgwIFo164dDh065Pc90+ckeQHy3R+tS09Px4EDB4x9eMsFLgzSqVOnsCxXcXExGGNG2k2kZWJoSdM0pmkaCwStC7YAYIIgMABNXgRBqLeYtzEv5m0kSWKyLDNZlv22kSSJWa3WevsKgsBEUTQ+W61WJklSvd9prmXEiBFswYIFrGvXrvXOBwBjjDFVVY2yZ4wxSZKYKIrGtbZv354tW7bM2I6vK/P/HTp0YIIgsNzcXG7L4LhcLsb0c/B6vebVYRPcRnNxrGAL/q9EYLVaA1q+cDB3iaG0GvM2qp5PxjvbTPe5zHEp+g2yckzP+ORjRA3R0PVS+ZDVmTx5MiorK1FWVoZVq1bh6tWrAX+Htz48ZJmgd30Cl97EbxMIQRDg8XiCdrM85OtRCMRcH+EuDYqrMch38TbwKJ77Gb6RBWLFihVgjGHbtm147LHHjBEf323D1IhhajQ0MHn66ae5PYLDuG7y5s2bkCQJa9asaXYfORQEvXtrsJCCQfuY/Zz7Hbpusk70mawKoWkavPpbzajSabRnJjk5GcePH/cTliAImDRpEmbNmoXRo0dDFEXExMRg0aJFWLJkid/+4N6gxhjDgQMHMG3aNOTm5mLw4MFhhS6IptZpk8zNwIEDzV89UJC1IQsucrlbBGVQCPoLBChOBj0YDABdu3bF22+/7bcfdMd8x44dGDNmTEiNn4QFfd93330XqampRpyutRF2795tzC2GcgFmLBYLLl68iPPnz+Ozzz7D4cOHcf36dWhcRmagTAgqYN7nuZcQRRE2mw1PPvkkjh07BuiVSy4CXTtMjyQPZO0pCt8YJOSlS5diyZIl9cqMr7+DBw8aD3mLFPPxw6VJ4vLpb20A974bQY8iV1dXo6qqChcuXEBlZSW++OILaHpWKgmNWnVTL6K1oEbSsWNH5OTk4Oc//zms+o0oEjeRHkxcmn53k7nrmz17NtavX298FwxRz9x4/fXXsWjRonpTOj7ukZ2IoD6bnWBhiFDxer0Bh62qqvoNl202G0tNTWXz589n3/3ud43hN4UAKIRgtVpDDkW09GI+j6SkJFZUVMTq6uoYY4y53W6/UAYfMrDZbH5lQdsDMMIQkiQxSZJYXl5e0HAQD/3Orl27mKZp7Pr1636LqqpM0zRWXV1t3vWu0KSUGx5yJvn/KWeePpOl++CDDzBnzhzU1tbipz/9KVJTU1FWVoaSkhJ88cUXftMbdxMqFzoPskY+PRtV0B166vrpvAHgW9/6Fv773/8CXPAT+rRSz549sXTpUkyfPh2qqiI7OxsbNmxodMQtCAIWLFiAkSNHmlcB+rFpYluNIOfdTFPLv9nEFQ5FRUXIzs5GdXU1iouL8dxzzxkmHwAqKipQVVWFiooKlJWV4fPPP4dXn9AWuJgPdT/0mZ4oaC4U82eCPxb/P33mxcULi0RlFpeiKIiLi4PH44HD4UBycrKxv6CHIA4dOoS0tDRomoaOHTvi9u3byMnJwfr16xsVV2lpKQRBMJ5IFMkIMByoW4+Uhq+mhXC5XHA6nYA+ICBhkS+WnJyMzMxMrFmzBg6HA3fu3MGhQ4ewdu1aTJs2Dampqca+Fv2NqhRv04K8oKAxQmnlZHkbEkFdXR3S0tLw+OOPm1dBVVUjr6qhYwRD0zQ4nU7ExsaGfZvX3aBJDn24SPor2w4ePIj33nsPt27dwq5duzBu3DjDGaUuhBxfavEil8FAQ/jy8nL85z//wb59+3D27FmcPHnSGK2ZnetA1ousk91uR9++fXH06FG/dSQAslp8VJ325S0X06P8S5YswRtvvGFsy0PnwRhDx44dcevWLeTl5UX0VrC2TvjNpwkw/QYHt9sNp9OJoUOH4tlnn4XA3Roly7LfiIoE5na7YbPZjBbr9Xrx1FNPYebMmdi+fTs+/fRT1NbW4uDBg1i/fj0mTZqExMREw7QHqjhRFDF+/Hjk5+dj79695tWAycKQoAIdC/o5gWtEweCFGwl82bTkogW43S+cxbBcwQqsuVFVFR9//DEcDgf++te/Ij4+HozrxpjJ7zF/DheXywWHw4Gvv/4aBQUF+OSTT3Dp0iVkZmZi5cqVePjhhyHqb1YNdK+frL8P6OGHH/Z76RL084mNjcXkyZOxatUqPPTQQwCAN954A4sXL26wqy0uLsb48eMBAO+++67xJo+2BF/2kSCoqsoQYcWFi6Dfy8h0C2b+zcYuxrx9OJCAWQP3TpqPT1mfiqLgww8/xIgRI/zWC/qLqvr37w/GmHHMxsSlaRr279+PzMxMzJ49G8OHDzcSE9sSjdVHYxhziy2BubL4SLWZUC7EfLxQIX+O9+kCWUTz8SVJQlxcHBYsWBA0Iu7V77wWueBlQ+Ki3+ehbqitoTV1tCgESKVprsVMoMImAm3fXNCIlFKb+XhUQ9A2AwYMMK8yzteq31ARyvFg8uHIivPib0sLjcYjXSL3KpsRqhizOM1LU6Fui88/44/LP05IDvIcBQRpCJR7Dz07QuRGqcEWilNZmiF3qiUWs4Me7tKkZ0Xcy9Bl80Kx6DflrlixAh06dEB2djbsdjv++Mc/YsKECQH3IQ4ePIi0tDR06tQJW7ZsCdk6tmUiPX8qnzZhue4Ggazhpk2b4HK5MG/evHrrEGQfgizXokWLAE6od2vhuycKMoe7mLvJUBcqpwdWXIHIzMwEdL/I0oB/SJhTWnbu3IlevXpBVVW43e563URrLbzFEfSYWiSLWWzhLg9stxgIjRvJbdmyBQsWLMCtW7ewc+dOPP/88+bNozRC1HI1gNPpbDB8wkfhffoDdaPL/y9Ry8WhmSzX/Pnz0b9/fxQXFxsT7TwPPfSQ8daLhIQE8+oHnqi4OBg3DbVlyxasXLkSK1asQPv27ev5VwgwajR/ftCJiouDFxcA7Nu3z299uDzoRRsVF4dZXE3lQS3aBz7OFaXlYHqEP2q5orQYUcsVpcWIiitKixEVV5QWIyquKC1GwPsWzROf9wtMT8yz6jfohgtF70NFa2Im573O/wCbGKPLVkOEjQAAAABJRU5ErkJggg==;strokeWidth=2;" vertex="1" parent="1">
          <mxGeometry x="329.1" y="680" width="101.8" height="60" as="geometry" />
        </mxCell>
        <mxCell id="vGL_J0Q6EiAsAP9_54zJ-54" value="VLSI Design Flow" style="text;html=1;align=center;verticalAlign=middle;resizable=0;points=[];autosize=1;strokeColor=none;fillColor=none;fontSize=50;" vertex="1" parent="1">
          <mxGeometry x="700" y="-70" width="420" height="70" as="geometry" />
        </mxCell>
      </root>
    </mxGraphModel>
  </diagram>
</mxfile>
